<!-- Generator: Adobe Illustrator 19.1.0, SVG Export Plug-In  -->
<svg version="1.1"
	 xmlns="http://www.w3.org/2000/svg" xmlns:xlink="http://www.w3.org/1999/xlink" xmlns:a="http://ns.adobe.com/AdobeSVGViewerExtensions/3.0/"
	 x="0px" y="0px" width="65.027px" height="54.494px" viewBox="0 0 65.027 54.494"
	 style="enable-background:new 0 0 65.027 54.494;" xml:space="preserve">
<style type="text/css">
	.st0{fill:#666666;}
	.st1{fill:#FFFFFF;}
</style>
<defs>
</defs>
<g>
	<path class="st0" d="M24.223,0c0.093,0.048,0.184,0.097,0.278,0.144c0.476,0.237,0.799,0.605,0.805,1.145
		c0.018,1.51,0.026,3.021-0.003,4.531c-0.013,0.683-0.592,1.205-1.263,1.247c-0.733,0.046-1.434-0.387-1.463-1.089
		c-0.068-1.614-0.055-3.233-0.008-4.848c0.018-0.617,0.55-0.909,1.076-1.13C23.837,0,24.03,0,24.223,0z"/>
	<path class="st0" d="M41.278,0c0.895,0.317,1.176,0.979,1.149,1.882c-0.038,1.234,0.002,2.47-0.014,3.705
		c-0.014,1.068-0.932,1.748-1.88,1.406C39.988,6.796,39.63,6.402,39.62,5.82c-0.026-1.51-0.021-3.021-0.003-4.531
		c0.007-0.54,0.329-0.908,0.805-1.145C40.515,0.097,40.607,0.048,40.7,0C40.892,0,41.085,0,41.278,0z"/>
	<g>
		<path class="st0" d="M13.96,33.087c0-8.818,0-17.637,0-26.455c0.024-0.066,0.06-0.13,0.071-0.198
			c0.281-1.747,1.575-3.192,3.32-3.458c1.133-0.172,2.303-0.095,3.457-0.127c0.07-0.002,0.14,0.021,0.249,0.038
			c0,0.147-0.002,0.289,0,0.43c0.013,0.888-0.006,1.778,0.05,2.664c0.077,1.22,1.018,2.223,2.257,2.484
			c1.171,0.246,2.437-0.33,3.021-1.36c0.288-0.507,0.394-1.048,0.389-1.624c-0.008-0.861-0.002-1.723-0.002-2.599
			c3.812,0,7.582,0,11.376,0c0,0.527-0.002,1.018,0.001,1.51c0.003,0.504-0.008,1.01,0.018,1.513
			c0.065,1.227,0.983,2.265,2.234,2.551c1.16,0.265,2.447-0.298,3.043-1.314c0.316-0.537,0.417-1.118,0.419-1.726
			c0.003-0.839,0.001-1.678,0.001-2.525c0.103-0.019,0.171-0.043,0.24-0.043c0.867-0.001,1.734-0.006,2.601,0.004
			c2.429,0.028,4.255,1.976,4.251,4.362c-0.012,8.445-0.001,16.89-0.015,25.335c-0.001,0.495-0.083,1.013-0.24,1.482
			c-0.586,1.751-2.185,2.863-4.085,2.865c-9.442,0.005-18.884,0.002-28.326,0.002c-0.084,0-0.169-0.003-0.253-0.007
			c-1.815-0.088-3.372-1.304-3.888-3.041C14.077,33.599,14.023,33.342,13.96,33.087z M16.786,12.758c0,0.191,0,0.332,0,0.473
			c0,6.367,0,12.733,0,19.1c0,1.213,0.548,1.758,1.767,1.758c9.273,0,18.546,0,27.82,0c1.217,0,1.763-0.546,1.763-1.762
			c0-6.355,0-12.709,0-19.064c0-0.505,0-0.505-0.502-0.505c-10.116,0-20.232,0-30.349,0C17.141,12.758,16.998,12.758,16.786,12.758z
			"/>
		<path class="st1" d="M16.786,12.758c0.212,0,0.355,0,0.499,0c10.116,0,20.232,0,30.349,0c0.502,0,0.502,0,0.502,0.505
			c0,6.355,0,12.709,0,19.064c0,1.216-0.546,1.762-1.763,1.762c-9.273,0-18.546,0-27.82,0c-1.219,0-1.767-0.545-1.767-1.758
			c0-6.367,0-12.733,0-19.1C16.786,13.09,16.786,12.949,16.786,12.758z M33.622,20.316c-1.803,3.652-3.578,7.247-5.372,10.882
			c1.553,0,3.034-0.01,4.514,0.008c0.303,0.004,0.436-0.099,0.547-0.368c1.508-3.66,3.011-7.322,4.556-10.966
			c0.395-0.931,0.157-1.859,0.255-2.795c-0.116-0.017-0.174-0.033-0.232-0.033c-3.612-0.001-7.225,0-10.837-0.005
			c-0.228,0-0.284,0.088-0.283,0.299c0.009,0.925,0.004,1.85,0.006,2.774c0,0.056,0.02,0.113,0.038,0.205
			C29.07,20.316,31.314,20.316,33.622,20.316z"/>
		<path class="st0" d="M33.622,20.316c-2.308,0-4.552,0-6.808,0c-0.018-0.092-0.038-0.149-0.038-0.205
			c-0.002-0.925,0.003-1.85-0.006-2.774c-0.002-0.211,0.054-0.299,0.283-0.299c3.612,0.005,7.225,0.004,10.837,0.005
			c0.058,0,0.116,0.016,0.232,0.033c-0.098,0.936,0.14,1.864-0.255,2.795c-1.545,3.644-3.048,7.307-4.556,10.966
			c-0.111,0.269-0.243,0.372-0.547,0.368c-1.48-0.018-2.961-0.008-4.514-0.008C30.044,27.562,31.819,23.968,33.622,20.316z"/>
		<g>
			<path class="st0" d="M0,48.972c0-3.281,2.485-5.522,5.693-5.522c2.357,0,3.721,1.281,4.475,2.609l-1.957,0.96
				c-0.449-0.865-1.412-1.553-2.518-1.553c-1.94,0-3.352,1.488-3.352,3.505c0,2.017,1.411,3.505,3.352,3.505
				c1.106,0,2.069-0.672,2.518-1.553l1.957,0.944c-0.77,1.329-2.117,2.625-4.475,2.625C2.485,54.494,0,52.253,0,48.972z"/>
			<path class="st0" d="M16.136,53.501c-0.529,0.624-1.443,0.992-2.454,0.992c-1.235,0-2.694-0.832-2.694-2.561
				c0-1.809,1.459-2.465,2.694-2.465c1.026,0,1.94,0.32,2.454,0.944V49.34c0-0.784-0.674-1.296-1.7-1.296
				c-0.833,0-1.604,0.304-2.261,0.912l-0.77-1.36c0.946-0.833,2.165-1.217,3.384-1.217c1.764,0,3.384,0.705,3.384,2.929v4.994
				h-2.037V53.501z M16.136,51.485c-0.337-0.448-0.979-0.672-1.636-0.672c-0.802,0-1.459,0.416-1.459,1.168
				c0,0.72,0.658,1.136,1.459,1.136c0.657,0,1.299-0.224,1.636-0.672V51.485z"/>
			<path class="st0" d="M20.195,43.625h2.037v10.676h-2.037V43.625z"/>
			<path class="st0" d="M27.765,46.378c2.309,0,3.881,1.729,3.881,4.258v0.448h-5.757c0.128,0.977,0.914,1.792,2.229,1.792
				c0.721,0,1.571-0.288,2.068-0.768l0.898,1.312c-0.77,0.704-1.989,1.072-3.191,1.072c-2.357,0-4.138-1.584-4.138-4.065
				C23.756,48.187,25.408,46.378,27.765,46.378z M25.857,49.708h3.816c-0.048-0.736-0.561-1.713-1.908-1.713
				C26.498,47.995,25.953,48.939,25.857,49.708z"/>
			<path class="st0" d="M38.351,49.628c0-1.072-0.561-1.44-1.427-1.44c-0.802,0-1.427,0.448-1.764,0.912v5.202h-2.037v-7.731h2.037
				v1.008c0.497-0.592,1.443-1.201,2.71-1.201c1.7,0,2.518,0.96,2.518,2.465v5.458h-2.037V49.628z"/>
			<path class="st0" d="M47.735,53.309c-0.609,0.768-1.459,1.184-2.389,1.184c-1.957,0-3.432-1.473-3.432-4.049
				c0-2.529,1.459-4.066,3.432-4.066c0.914,0,1.78,0.4,2.389,1.185v-3.938h2.053v10.676h-2.053V53.309z M47.735,49.068
				c-0.336-0.512-1.074-0.88-1.764-0.88c-1.154,0-1.956,0.912-1.956,2.257c0,1.329,0.802,2.241,1.956,2.241
				c0.69,0,1.428-0.368,1.764-0.88V49.068z"/>
			<path class="st0" d="M56.461,53.501c-0.529,0.624-1.443,0.992-2.454,0.992c-1.235,0-2.694-0.832-2.694-2.561
				c0-1.809,1.459-2.465,2.694-2.465c1.026,0,1.94,0.32,2.454,0.944V49.34c0-0.784-0.674-1.296-1.7-1.296
				c-0.833,0-1.604,0.304-2.261,0.912l-0.77-1.36c0.946-0.833,2.165-1.217,3.384-1.217c1.764,0,3.384,0.705,3.384,2.929v4.994
				h-2.037V53.501z M56.461,51.485c-0.337-0.448-0.979-0.672-1.636-0.672c-0.802,0-1.459,0.416-1.459,1.168
				c0,0.72,0.658,1.136,1.459,1.136c0.657,0,1.299-0.224,1.636-0.672V51.485z"/>
			<path class="st0" d="M60.521,46.571h2.037v1.056c0.545-0.688,1.508-1.232,2.47-1.232v1.985c-0.144-0.032-0.336-0.064-0.561-0.064
				c-0.674,0-1.572,0.384-1.909,0.88v5.106h-2.037V46.571z"/>
		</g>
	</g>
</g>
</svg>