<!-- Generator: Adobe Illustrator 19.1.0, SVG Export Plug-In  -->
<svg version="1.1"
	 xmlns="http://www.w3.org/2000/svg" xmlns:xlink="http://www.w3.org/1999/xlink" xmlns:a="http://ns.adobe.com/AdobeSVGViewerExtensions/3.0/"
	 x="0px" y="0px" width="118.667px" height="118.667px" viewBox="0 0 118.667 118.667"
	 style="enable-background:new 0 0 118.667 118.667;" xml:space="preserve">
<style type="text/css">
	.st0{fill-rule:evenodd;clip-rule:evenodd;fill:#999999;}
	.st1{fill:#999999;}
</style>
<defs>
</defs>
<g>
	<path class="st0" d="M118.667,59.334C118.667,26.569,92.091,0,59.333,0C26.569,0,0,26.569,0,59.334
		c0,32.758,26.569,59.334,59.333,59.334C92.091,118.667,118.667,92.092,118.667,59.334L118.667,59.334z M5.4,59.334
		C5.4,29.549,29.549,5.4,59.333,5.4s53.934,24.149,53.934,53.934s-24.149,53.933-53.934,53.933S5.4,89.119,5.4,59.334L5.4,59.334z
		 M5.4,59.334"/>
	<g>
		<path class="st1" d="M92.714,35.042h-66.61c-2.145,0-3.885,1.739-3.885,3.885v40.887c0,2.145,1.74,3.885,3.885,3.885h66.61
			c2.146,0,3.885-1.74,3.885-3.885V38.927C96.599,36.781,94.859,35.042,92.714,35.042L92.714,35.042z M90.167,73.6
			c1.053,0.876,1.199,2.438,0.324,3.492c-0.49,0.59-1.197,0.896-1.909,0.896c-0.558,0-1.119-0.188-1.582-0.572L69.515,62.903
			l-8.523,7.073c-0.459,0.381-1.022,0.572-1.583,0.572c-0.562,0-1.125-0.19-1.583-0.572l-8.523-7.073L31.818,77.415
			c-1.052,0.875-2.615,0.731-3.492-0.324c-0.874-1.053-0.728-2.616,0.324-3.492L45.42,59.68L28.651,45.76
			c-1.053-0.875-1.198-2.438-0.324-3.492c0.876-1.053,2.44-1.197,3.492-0.324l27.591,22.901L87,41.945
			c1.053-0.873,2.617-0.729,3.491,0.324c0.875,1.053,0.729,2.616-0.324,3.492L73.397,59.68L90.167,73.6z M90.167,73.6"/>
	</g>
</g>
</svg>