<!-- Generator: Adobe Illustrator 19.1.0, SVG Export Plug-In  -->
<svg version="1.1"
	 xmlns="http://www.w3.org/2000/svg" xmlns:xlink="http://www.w3.org/1999/xlink" xmlns:a="http://ns.adobe.com/AdobeSVGViewerExtensions/3.0/"
	 x="0px" y="0px" width="38.922px" height="39.085px" viewBox="0 0 38.922 39.085"
	 style="enable-background:new 0 0 38.922 39.085;" xml:space="preserve">
<style type="text/css">
	.st0{fill:#666666;}
</style>
<defs>
</defs>
<g>
	<path class="st0" d="M35.18,5.964c1.876,1.057,3.148,2.946,3.514,4.958c0.203,1.115,0.193,2.276,0.204,3.417
		c0.027,2.711,0.036,5.424,0.002,8.135c-0.043,3.419-1.902,5.263-5.131,5.934c-0.719,0.15-1.462,0.186-2.374,0.296
		c-0.122,3.229,0.048,6.945-0.082,10.381c-0.267-0.229-0.769-0.804-0.948-0.987c-2.743-2.8-5.497-5.59-8.21-8.419
		c-0.609-0.635-1.294-0.881-2.126-0.881c-1.496,0-2.992-0.003-4.488-0.009c-0.296-0.001-0.591-0.025-1.029-0.26
		c1.017-0.985,2.12-1.897,3.024-2.977c0.834-0.995,0.943-1.297,3.018-1.253c2.74,0.058,5.485,0.032,8.227,0.032
		c3.182-0.001,5.771-2.21,6.211-5.388c0.16-1.158,0.183-2.34,0.194-3.512c0.027-2.898,0.011-5.797,0.013-8.696
		C35.2,6.673,35.15,6.176,35.18,5.964z"/>
	<path class="st0" d="M24.484,7.82c-0.532,0-0.964,0.237-1.294,0.711c-0.331,0.474-0.497,1.214-0.497,2.22
		c0,1.173,0.162,1.996,0.485,2.47s0.766,0.711,1.33,0.711c0.181,0,0.353-0.022,0.514-0.066c-0.225-0.269-0.579-0.523-1.064-0.762
		l0.42-1.194c0.237,0.054,0.421,0.12,0.553,0.198c0.132,0.078,0.389,0.283,0.771,0.616c0.091,0.078,0.189,0.159,0.296,0.242
		c0.213-0.474,0.319-1.182,0.319-2.125c0-1.085-0.162-1.859-0.487-2.323C25.504,8.052,25.055,7.82,24.484,7.82z"/>
	<polygon class="st0" points="14.29,12.137 16.193,12.137 15.237,8.275 	"/>
	<path class="st0" d="M33.292,6.401c-0.003-3.519-2.873-6.394-6.387-6.396C20.018,0.002,13.131-0.007,6.244,0.01
		C3.143,0.017-0.058,2.537,0.001,6.186c0.058,3.583-0.006,7.167,0.022,10.751c0.015,1.915,0.917,3.406,2.41,4.557
		c1.251,0.965,2.679,1.42,4.309,1.324c0,3.094-0.005,6.678-0.005,9.718c0.197-0.016,6.545-6.188,9.629-9.001
		c0.539-0.492,1.063-0.753,1.805-0.745c2.991,0.032,5.983,0.015,8.975,0.011c0.279,0,0.565,0.007,0.835-0.049
		c3.336-0.687,5.391-3.424,5.327-6.722C33.244,12.821,33.295,9.611,33.292,6.401z M10.547,11.843H7.19v4.389H4.501V5.49h6.62v2.308
		H7.19v1.876h3.357V11.843z M17.182,16.233l-0.433-1.773h-3.04l-0.422,1.773h-2.734L13.809,5.49h2.921l3.256,10.743H17.182z
		 M28.58,17.442c-0.375-0.225-0.745-0.492-1.111-0.802c-0.367-0.31-0.623-0.543-0.769-0.7c-0.591,0.318-1.332,0.476-2.222,0.476
		c-1.316,0-2.354-0.425-3.114-1.275c-0.899-1.006-1.348-2.421-1.348-4.243c0-1.768,0.393-3.142,1.179-4.122
		c0.786-0.979,1.884-1.469,3.295-1.469c1.438,0,2.548,0.479,3.331,1.436c0.782,0.958,1.173,2.328,1.173,4.111
		c0,1.588-0.315,2.858-0.945,3.81c0.335,0.288,0.553,0.469,0.656,0.542c0.154,0.108,0.361,0.232,0.621,0.374L28.58,17.442z"/>
</g>
</svg>