<!-- Generator: Adobe Illustrator 19.1.0, SVG Export Plug-In  -->
<svg version="1.1"
	 xmlns="http://www.w3.org/2000/svg" xmlns:xlink="http://www.w3.org/1999/xlink" xmlns:a="http://ns.adobe.com/AdobeSVGViewerExtensions/3.0/"
	 x="0px" y="0px" width="118.667px" height="118.659px" viewBox="0 0 118.667 118.659"
	 style="enable-background:new 0 0 118.667 118.659;" xml:space="preserve">
<style type="text/css">
	.st0{fill-rule:evenodd;clip-rule:evenodd;fill:#999999;}
	.st1{fill:#999999;}
</style>
<defs>
</defs>
<g>
	<path class="st0" d="M118.667,59.33C118.667,26.567,92.091,0,59.333,0C26.569,0,0,26.567,0,59.33
		c0,32.756,26.569,59.33,59.333,59.33C92.091,118.659,118.667,92.085,118.667,59.33L118.667,59.33z M5.4,59.33
		C5.4,29.547,29.549,5.4,59.333,5.4s53.934,24.147,53.934,53.93s-24.149,53.93-53.934,53.93S5.4,89.113,5.4,59.33L5.4,59.33z
		 M5.4,59.33"/>
	<g>
		<path class="st1" d="M94.88,59.525c0,0.756-0.607,1.363-1.351,1.363h-9.846v9.834c0,0.756-0.607,1.363-1.351,1.363h-2.805
			c-0.756,0-1.363-0.607-1.363-1.363v-9.834H68.33c-0.745,0-1.363-0.607-1.363-1.363v-2.793c0-0.756,0.618-1.375,1.363-1.375h9.834
			v-9.825c0-0.756,0.607-1.363,1.363-1.363h2.805c0.745,0,1.351,0.607,1.351,1.363v9.825h9.846c0.745,0,1.351,0.618,1.351,1.363
			V59.525z"/>
		<path class="st1" d="M55.79,89.215c-2.198,0.639-4.579,0.961-7.076,0.961c-2.782,0-5.449-0.322-7.946-0.95
			c-4.819-1.216-8.38-3.529-10.051-6.504c-0.721-1.284-1.079-2.647-1.079-4.077c0-1.454,0.346-2.943,1.032-4.409
			c2.644-5.634,9.617-9.424,17.335-9.424h0.217c-0.63-1.099-0.926-2.242-0.926-3.444c0-0.595,0.079-1.205,0.24-1.832
			c-8.096-0.185-14.152-6.103-14.152-13.923c0-5.519,4.409-10.889,10.716-13.064c1.891-0.654,3.813-0.985,5.701-0.985h17.314
			c0.583,0,1.108,0.378,1.293,0.938c0.185,0.56-0.023,1.178-0.493,1.524l-3.869,2.805c-0.24,0.158-0.516,0.249-0.803,0.249h-1.384
			c1.785,2.143,2.837,5.212,2.837,8.647c0,3.79-1.923,7.372-5.414,10.098c-2.691,2.107-2.805,2.691-2.805,3.881
			c0.032,0.665,1.911,2.817,3.983,4.282c4.831,3.412,6.63,6.756,6.63,12.355C67.093,82.171,62.649,87.222,55.79,89.215L55.79,89.215
			z M54.703,70.517c-0.378-0.252-0.765-0.516-1.167-0.803c-1.181-0.355-2.427-0.548-3.711-0.56h-0.161
			c-5.895,0-11.059,3.561-11.059,7.636c0,4.432,4.432,7.902,10.077,7.902c7.454,0,11.232-2.577,11.232-7.639
			c0-0.481-0.059-0.985-0.173-1.477C59.237,73.607,57.429,72.381,54.703,70.517L54.703,70.517z M50.523,55.07h0.012
			c1.41,0,2.6-0.56,3.517-1.615c1.442-1.647,2.084-4.35,1.706-7.214c-0.665-5.13-4.329-9.4-8.155-9.503l-0.158-0.012
			c-1.351,0-2.553,0.563-3.471,1.615c-1.43,1.627-2.025,4.203-1.659,7.064c0.674,5.118,4.417,9.538,8.163,9.664H50.523z"/>
	</g>
</g>
</svg>