<!-- Generator: Adobe Illustrator 19.1.0, SVG Export Plug-In  -->
<svg version="1.1"
	 xmlns="http://www.w3.org/2000/svg" xmlns:xlink="http://www.w3.org/1999/xlink" xmlns:a="http://ns.adobe.com/AdobeSVGViewerExtensions/3.0/"
	 x="0px" y="0px" width="36px" height="36px" viewBox="0 0 36 36" style="enable-background:new 0 0 36 36;" xml:space="preserve">
<style type="text/css">
	.st0{fill:#A2CD4D;}
	.st1{fill:#FFFFFF;}
</style>
<defs>
</defs>
<g>
	<path class="st0" d="M17.759,0.002C7.82,0.133-0.13,8.301,0.002,18.243C0.133,28.178,8.3,36.13,18.241,35.998
		c9.937-0.134,17.889-8.301,17.758-18.241C35.864,7.82,27.698-0.132,17.759,0.002L17.759,0.002z"/>
	<path class="st1" d="M19.754,5.999c1.83,0,2.371,1.062,2.371,2.276c0,1.517-1.215,2.919-3.286,2.919
		c-1.733,0-2.559-0.871-2.509-2.312C16.33,7.669,17.347,5.999,19.754,5.999L19.754,5.999z"/>
	<path class="st1" d="M15.063,29.25c-1.25,0-2.167-0.759-1.292-4.096l1.435-5.917c0.248-0.95,0.291-1.328,0-1.328
		c-0.375,0-1.999,0.655-2.958,1.299l-0.625-1.024c3.041-2.54,6.54-4.03,8.038-4.03c1.252,0,1.46,1.479,0.835,3.755l-1.643,6.221
		c-0.291,1.101-0.166,1.479,0.124,1.479c0.376,0,1.605-0.456,2.812-1.404l0.709,0.948C19.542,28.109,16.313,29.25,15.063,29.25
		L15.063,29.25z"/>
	<path d="M15.063,29.25"/>
</g>
</svg>