<svg id="Layer_1" data-name="Layer 1" xmlns="http://www.w3.org/2000/svg" viewBox="0 0 167.53 84.84"><title>pasted svg 525769x856</title><g id="JynnWf"><path d="M206.73,0l-12.9,21.43,6.85-2-12.18,22L189,41.75l6.16-3.21,0.24,0.3L182.26,62.62l8.62-4L191.09,59,175.95,84.65h74.84V74.89a15.29,15.29,0,0,1,3,1.56,71.66,71.66,0,0,1,6.39,6.08c1.73,1.95,3.7,2.38,6.16,2.31,5.1-.15,10.2,0,15.79,0L267.65,70.52c2.5-2.43,4.82-4.55,6.94-6.85a5,5,0,0,0,1.23-3c0.11-4.86,0-9.72,0-14.58,0-2.1,0-4.2,0-6.46-6.08,0-11.89,0-17.69,0-2.33,0-4.79-.51-7,2.06a28.62,28.62,0,0,0,0-3.43c-0.31-2.17.58-3.64,2.13-5.14,6.54-6.34,12.94-12.81,19.4-19.23,0.47-.47,1-0.9,1.8-1.64,6.65,6.78,13.21,13.48,19.79,20.15,2.57,2.61,5.69,2.57,8.33,0L320.27,15c6.26,6.13,12.4,12.09,18.46,18.13a3.38,3.38,0,0,0,3.21,1.2L316.74,8l-21,21.09L267.25,0.6,225.06,42.3l-13-23.3,6,2.59,0.34-.35ZM319.25,39.79h-33.9v45H319.6V72.88H301.74V67h17.9V56h-18V49.94h17.57C319.25,46.43,319.25,43.17,319.25,39.79Zm9.61-.09v45h14.62v-45H328.86Z" transform="translate(-175.95)" fill="#fff"/><path d="M206.73,0l11.64,21.23-0.34.35-6-2.59,13,23.3L267.25,0.6l28.51,28.46L316.74,8l25.2,26.33a3.38,3.38,0,0,1-3.21-1.2c-6.05-6-12.2-12-18.46-18.13L302.55,32.39c-2.64,2.6-5.76,2.64-8.33,0-6.58-6.68-13.14-13.37-19.79-20.15-0.82.74-1.33,1.17-1.8,1.64-6.46,6.42-12.86,12.9-19.4,19.23-1.54,1.5-2.44,3-2.12,5.14a28.62,28.62,0,0,1,0,3.43c2.2-2.58,4.65-2.06,7-2.06,5.81,0,11.61,0,17.69,0,0,2.26,0,4.36,0,6.46,0,4.86.11,9.72,0,14.58a5,5,0,0,1-1.23,3c-2.12,2.3-4.45,4.41-6.94,6.85l14.53,14.27c-5.59,0-10.69-.1-15.79,0-2.46.07-4.43-.36-6.16-2.31a71.66,71.66,0,0,0-6.39-6.08,15.24,15.24,0,0,0-3-1.56v9.76H176L191.09,59l-0.21-.35-8.62,4,13.09-23.77-0.24-.3L189,41.75l-0.46-.34,12.18-22-6.85,2Zm17.63,62.42,10.22,17.72L234.9,80V51Zm35.22-13.73c-2.69,2.53-4.82,4.76-7.18,6.7-1.84,1.51-1.85,3.26-1.48,5.49,2.57,0,5.08,0,7.59-.05a1.57,1.57,0,0,0,1-1.14C259.61,56.22,259.58,52.76,259.58,48.69Zm-38-2.77,3-2.83-7.48-4.24-0.21.3Z" transform="translate(-175.95)"/><path d="M319.25,39.79V49.94H301.69V56h18V67h-17.9v5.83H319.6V84.75H285.36v-45h33.89Z" transform="translate(-175.95)"/><path d="M328.86,39.7h14.62v45H328.86v-45Z" transform="translate(-175.95)"/><path d="M224.36,62.42L234.9,51V80l-0.32.14Z" transform="translate(-175.95)" fill="#fff"/><path d="M259.58,48.69c0,4.07,0,7.53,0,11a1.57,1.57,0,0,1-1,1.14c-2.51.1-5,.05-7.59,0.05-0.37-2.23-.36-4,1.48-5.49C254.76,53.44,256.89,51.22,259.58,48.69Z" transform="translate(-175.95)" fill="#fff"/><path d="M221.55,45.92l-4.7-6.77,0.21-.3,7.48,4.24Z" transform="translate(-175.95)" fill="#fff"/></g></svg>