<svg id="Layer_1" data-name="Layer 1" xmlns="http://www.w3.org/2000/svg" viewBox="0 0 149.41 216.01"><title>ddd</title><path d="M405,719.41l-36.24-78.57a161.3,161.3,0,0,1-31.69,14.65l36.25,78.65A69.1,69.1,0,1,0,405,719.41h0Z" transform="translate(-337.12 -640.84)" fill="#a2cd4d"/><path d="M380.95,815.73v-53.4a2.25,2.25,0,0,0,.14-0.4,8.2,8.2,0,0,1,6.68-7,56.92,56.92,0,0,1,7-.26,3.19,3.19,0,0,1,.5.08c0,0.3,0,.58,0,0.87,0,1.79,0,3.59.1,5.38a5.6,5.6,0,0,0,4.55,5,5.77,5.77,0,0,0,6.08-2.74,6.36,6.36,0,0,0,.78-3.28c0-1.74,0-3.48,0-5.25h22.9c0,1.06,0,2.06,0,3s0,2,0,3.05a5.68,5.68,0,0,0,4.5,5.15,5.79,5.79,0,0,0,6.13-2.65,6.74,6.74,0,0,0,.84-3.48c0-1.69,0-3.39,0-5.1a3.1,3.1,0,0,1,.48-0.09c1.75,0,3.49,0,5.24,0a8.64,8.64,0,0,1,8.56,8.8c0,17,0,34.09,0,51.14a9.67,9.67,0,0,1-.48,3,8.46,8.46,0,0,1-8.23,5.78H389.16a8.58,8.58,0,0,1-7.83-6.14C381.18,816.77,381.08,816.24,380.95,815.73Zm5.69-41v39.51c0,2.45,1.1,3.55,3.56,3.55h56c2.45,0,3.55-1.1,3.55-3.56q0-19.24,0-38.48c0-1,0-1-1-1H386.64Z" transform="translate(-337.12 -640.84)"/><path d="M401.61,748.94l0.56,0.29a2.57,2.57,0,0,1,1.62,2.31c0,3,.05,6.1,0,9.15a2.65,2.65,0,0,1-2.54,2.52,2.57,2.57,0,0,1-2.95-2.2c-0.14-3.26-.11-6.53,0-9.78,0-1.24,1.11-1.84,2.17-2.28h1.17Z" transform="translate(-337.12 -640.84)"/><path d="M436,748.94c1.8,0.64,2.37,2,2.31,3.8-0.08,2.49,0,5,0,7.48a2.83,2.83,0,0,1-3.79,2.84,2.51,2.51,0,0,1-1.84-2.37c-0.05-3,0-6.1,0-9.15a2.57,2.57,0,0,1,1.62-2.31l0.56-.29H436Z" transform="translate(-337.12 -640.84)"/><path d="M386.64,774.7h62.11c1,0,1,0,1,1V814.2c0,2.45-1.1,3.56-3.55,3.56h-56c-2.45,0-3.56-1.1-3.56-3.55q0-19.28,0-38.55C386.64,775.37,386.64,775.08,386.64,774.7ZM420.54,790l-10.82,22c3.13,0,6.11,0,9.09,0a1,1,0,0,0,1.1-.74c3-7.39,6.06-14.78,9.17-22.14,0.79-1.88.32-3.75,0.51-5.64a4,4,0,0,0-.47-0.07H407.31a0.48,0.48,0,0,0-.57.6c0,1.87,0,3.73,0,5.6a2.63,2.63,0,0,0,.08.41h13.71Z" transform="translate(-337.12 -640.84)" fill="#fff"/><path d="M420.54,790H406.83a2.61,2.61,0,0,1-.08-0.41c0-1.87,0-3.73,0-5.6a0.48,0.48,0,0,1,.57-0.6h21.82a4.21,4.21,0,0,1,.47.07c-0.2,1.89.28,3.76-.51,5.64-3.11,7.36-6.14,14.75-9.17,22.14a1,1,0,0,1-1.1.74c-3,0-6,0-9.09,0Z" transform="translate(-337.12 -640.84)"/><path d="M365.8,670.82a5.62,5.62,0,0,1,7.73,2.79,5.07,5.07,0,0,1-.4,5.34l-1.78-1.39a3,3,0,0,0,.3-3,3.64,3.64,0,0,0-6.53,3.18,3,3,0,0,0,2.59,1.64v2.25a5.1,5.1,0,0,1-4.47-3A5.62,5.62,0,0,1,365.8,670.82Z" transform="translate(-337.12 -640.84)" fill="#fff"/><path d="M368.89,687.87a3.31,3.31,0,0,1-2-1.83,2.67,2.67,0,0,1,1.17-3.67,2.54,2.54,0,0,1,3.52,1.39,3.24,3.24,0,0,1,.23,2.71l1-.49a1.49,1.49,0,0,0,.44-2.17,3.37,3.37,0,0,0-1.87-1.69l0.92-1.33a5.26,5.26,0,0,1,2.67,2.59c0.8,1.64.88,3.47-1.2,4.47l-4.65,2.27-0.92-1.89Zm1.88-.91a2.1,2.1,0,0,0-.11-1.83,1.23,1.23,0,1,0-2.15,1,2.11,2.11,0,0,0,1.37,1.22Z" transform="translate(-337.12 -640.84)" fill="#fff"/><path d="M379.93,687.16l0.92,1.9-9.94,4.85L370,692Z" transform="translate(-337.12 -640.84)" fill="#fff"/><path d="M380.8,695.45c1,2.15.15,4.39-2.21,5.54l-0.42.2-2.61-5.35a2.16,2.16,0,0,0-.66,2.89,3.26,3.26,0,0,0,1.65,1.57l-0.82,1.43a5,5,0,0,1-2.45-2.48A4.2,4.2,0,1,1,380.8,695.45Zm-4-.26,1.73,3.55a1.86,1.86,0,0,0,.73-2.55A1.92,1.92,0,0,0,376.83,695.18Z" transform="translate(-337.12 -640.84)" fill="#fff"/><path d="M382.57,706.76a1.3,1.3,0,0,0,.69-2,2.28,2.28,0,0,0-1.65-1.23l-4.85,2.36L375.84,704l7.2-3.51,0.92,1.89-0.94.46a3.67,3.67,0,0,1,2.35,2,2.33,2.33,0,0,1-1.15,3.46l-5.08,2.48-0.92-1.89Z" transform="translate(-337.12 -640.84)" fill="#fff"/><path d="M383.39,717.16a3.11,3.11,0,0,1-2.19-1.68c-0.89-1.82-.18-3.86,2.22-5s4.45-.49,5.34,1.34a3.09,3.09,0,0,1,0,2.76l3.67-1.79,0.93,1.91-9.95,4.85-0.93-1.91Zm4-1.93a2.3,2.3,0,0,0,0-2,2.35,2.35,0,0,0-4.19,2,2.29,2.29,0,0,0,1.62,1.24Z" transform="translate(-337.12 -640.84)" fill="#fff"/><path d="M387.16,725.35a3.31,3.31,0,0,1-2-1.83,2.67,2.67,0,0,1,1.16-3.67,2.54,2.54,0,0,1,3.52,1.39A3.23,3.23,0,0,1,390,724l1-.49a1.5,1.5,0,0,0,.44-2.17,3.38,3.38,0,0,0-1.87-1.69l0.92-1.33a5.25,5.25,0,0,1,2.67,2.59c0.8,1.64.88,3.47-1.19,4.47l-4.65,2.27-0.92-1.9Zm1.88-.91a2.11,2.11,0,0,0-.11-1.83,1.23,1.23,0,1,0-2.15,1,2.11,2.11,0,0,0,1.37,1.22Z" transform="translate(-337.12 -640.84)" fill="#fff"/><path d="M395.46,726l0.92,1.89-1,.48a3.43,3.43,0,0,1,2.27,1.74l-1.85.9a2.59,2.59,0,0,0-1.88-1.93l-4.76,2.32-0.92-1.89Z" transform="translate(-337.12 -640.84)" fill="#fff"/></svg>