<!-- Generator: Adobe Illustrator 19.1.0, SVG Export Plug-In  -->
<svg version="1.1"
	 xmlns="http://www.w3.org/2000/svg" xmlns:xlink="http://www.w3.org/1999/xlink" xmlns:a="http://ns.adobe.com/AdobeSVGViewerExtensions/3.0/"
	 x="0px" y="0px" width="38.658px" height="32.861px" viewBox="0 0 38.658 32.861"
	 style="enable-background:new 0 0 38.658 32.861;" xml:space="preserve">
<style type="text/css">
	.st0{fill:#FFFFFF;}
	.st1{fill:#CCCCCC;}
	.st2{fill:#4D4D4D;}
</style>
<defs>
</defs>
<g>
	<path class="st0" d="M20.105,27.544c-0.592,0-1.183-0.165-1.637-0.495l-14.6-10.621L18.505,5.81
		c0.916-0.665,2.39-0.657,3.292,0.017C22.7,6.5,22.69,7.585,21.774,8.249l-11.279,8.183l11.247,8.182
		c0.914,0.665,0.923,1.75,0.019,2.422C21.305,27.375,20.704,27.544,20.105,27.544z"/>
	<rect x="0" y="0" class="st1" width="38.658" height="32.861"/>
	<path class="st2" d="M25.515,27.544c0.6,0,1.2-0.17,1.656-0.508c0.904-0.673,0.896-1.757-0.019-2.422l-11.247-8.182l11.279-8.183
		C28.1,7.585,28.11,6.5,27.207,5.827c-0.903-0.674-2.377-0.681-3.292-0.017L9.278,16.429l14.6,10.621
		C24.331,27.38,24.923,27.544,25.515,27.544z"/>
</g>
</svg>