<!-- Generator: Adobe Illustrator 19.1.0, SVG Export Plug-In  -->
<svg version="1.1"
	 xmlns="http://www.w3.org/2000/svg" xmlns:xlink="http://www.w3.org/1999/xlink" xmlns:a="http://ns.adobe.com/AdobeSVGViewerExtensions/3.0/"
	 x="0px" y="0px" width="118.667px" height="118.659px" viewBox="0 0 118.667 118.659"
	 style="enable-background:new 0 0 118.667 118.659;" xml:space="preserve">
<style type="text/css">
	.st0{fill:#999999;stroke:#231F20;stroke-miterlimit:10;}
	.st1{fill:#999999;}
	.st2{fill-rule:evenodd;clip-rule:evenodd;fill:#999999;}
</style>
<defs>
</defs>
<g>
	<path class="st0" d="M57.006,23.419"/>
	<g>
		<rect x="28.291" y="36.976" class="st1" width="14.632" height="51.167"/>
		<path class="st1" d="M36.073,33.879c-3.781,0-6.85-3.069-6.85-6.887c0-3.781,3.069-6.85,6.85-6.85
			c3.781,0.037,6.85,3.106,6.85,6.85C42.923,30.81,39.854,33.879,36.073,33.879L36.073,33.879z"/>
		<path class="st1" d="M94.044,88.143H79.458V56.531c0-3.709-1.068-6.312-5.599-6.312c-7.572,0-9.033,6.312-9.033,6.312v31.612
			H50.239V36.976h14.587v4.896c2.11-1.571,7.316-4.859,14.632-4.859c4.741,0,14.587,2.822,14.587,19.948V88.143z"/>
	</g>
	<path class="st2" d="M118.667,59.33C118.667,26.567,92.091,0,59.333,0C26.569,0,0,26.567,0,59.33
		c0,32.756,26.569,59.33,59.333,59.33C92.091,118.659,118.667,92.085,118.667,59.33L118.667,59.33z M5.4,59.33
		C5.4,29.547,29.549,5.4,59.333,5.4s53.934,24.147,53.934,53.93s-24.149,53.93-53.934,53.93S5.4,89.113,5.4,59.33L5.4,59.33z
		 M5.4,59.33"/>
</g>
</svg>