<svg id="Layer_1" data-name="Layer 1" xmlns="http://www.w3.org/2000/svg" viewBox="0 0 200.83 138.75"><title>cccc</title><path d="M245.63,544.1l-62.4-15.91a69.35,69.35,0,1,0-8.48,33.87L237,577.94a155.74,155.74,0,0,1,8.59-33.84h0Z" transform="translate(-44.81 -459.26)" fill="#a2cd4d"/><path d="M115,553.53H145a8.88,8.88,0,0,0,1.74-.18,2.21,2.21,0,0,0,1.88-2.38,11.57,11.57,0,0,0-.22-1.84,34.09,34.09,0,0,0-16-23.09c-1.57-1-1.58-1-3,.28-0.14.12-.29,0.23-0.44,0.34a22.16,22.16,0,0,1-16.65,4.77,21.51,21.51,0,0,1-12.3-5.52,1.46,1.46,0,0,0-2.07-.23A33.79,33.79,0,0,0,83.26,543a53.89,53.89,0,0,0-2,7.5,2.24,2.24,0,0,0,2,2.86,8.53,8.53,0,0,0,1.56.15H115Zm0-25.24a19.24,19.24,0,1,0-19.23-19.23A19.32,19.32,0,0,0,114.94,528.3Z" transform="translate(-44.81 -459.26)"/><path d="M115,553.53H84.89a8.46,8.46,0,0,1-1.56-.15,2.24,2.24,0,0,1-2-2.86,53.89,53.89,0,0,1,2-7.5A33.8,33.8,0,0,1,98,525.69a1.46,1.46,0,0,1,2.07.23,21.51,21.51,0,0,0,12.3,5.52A22.16,22.16,0,0,0,129,526.66c0.15-.11.3-0.22,0.44-0.34,1.41-1.24,1.43-1.26,3-.28a34.09,34.09,0,0,1,16,23.09,11.57,11.57,0,0,1,.22,1.84,2.21,2.21,0,0,1-1.88,2.38,8.9,8.9,0,0,1-1.74.18H115Z" transform="translate(-44.81 -459.26)"/><path d="M114.94,528.3a19.24,19.24,0,1,1,19.27-19.1A19.32,19.32,0,0,1,114.94,528.3Z" transform="translate(-44.81 -459.26)"/><path d="M184.25,537.41l5.67,1.45a4,4,0,1,1-2,7.82l-3.09-.79-1.1,4.31-2.58-.66Zm4.74,3.64-2.74-.7-0.84,3.27,2.74,0.7A1.7,1.7,0,1,0,189,541.05Z" transform="translate(-44.81 -459.26)" fill="#fff"/><path d="M194.68,543.66l2.31,0.59-0.31,1.2a3.88,3.88,0,0,1,3.16-.68L199.26,547a2.93,2.93,0,0,0-.62-0.23,3,3,0,0,0-2.42.44l-1.49,5.8-2.31-.59Z" transform="translate(-44.81 -459.26)" fill="#fff"/><path d="M199.54,549.57a4.8,4.8,0,1,1,3.45,5.81A4.59,4.59,0,0,1,199.54,549.57Zm6.89,1.77a2.34,2.34,0,1,0-2.91,2A2.39,2.39,0,0,0,206.43,551.34Z" transform="translate(-44.81 -459.26)" fill="#fff"/><path d="M211.66,550.16l-1.46-.37,0.52-2,1.46,0.37,0.12-.47a2.92,2.92,0,0,1,3.75-2.29,3.87,3.87,0,0,1,1.58.79l-0.9,1.55a1.33,1.33,0,0,0-.69-0.41,1.11,1.11,0,0,0-1.41,1l-0.12.47,1.78,0.46-0.52,2-1.78-.46-1.73,6.76-2.33-.6Zm6-.62,2.31,0.59-2.25,8.78-2.31-.59Zm0.36-2.39a1.43,1.43,0,1,1,1,1.74A1.44,1.44,0,0,1,218,547.15Z" transform="translate(-44.81 -459.26)" fill="#fff"/><path d="M223.07,547.37l2.31,0.59-3.11,12.13L220,559.5Z" transform="translate(-44.81 -459.26)" fill="#fff"/><path d="M230.85,552.7c2.62,0.67,3.9,3.09,3.16,6l-0.13.51-6.53-1.67a2.44,2.44,0,0,0,2,2.68,3.71,3.71,0,0,0,2.57-.27l0.63,1.75a5.65,5.65,0,0,1-3.93.29A4.76,4.76,0,1,1,230.85,552.7Zm-3.13,3.23L232,557a2.1,2.1,0,0,0-1.66-2.5A2.18,2.18,0,0,0,227.72,555.92Z" transform="translate(-44.81 -459.26)" fill="#fff"/></svg>