<svg id="Layer_1" data-name="Layer 1" xmlns="http://www.w3.org/2000/svg" viewBox="0 0 180.64 240.22"><title>a</title><path d="M375.08,523.4l62.13-104.53a68.53,68.53,0,1,0-30.11-17.58l-62,104.22a157.5,157.5,0,0,1,29.95,17.89h0Z" transform="translate(-345.13 -283.18)" fill="#a2cd4d"/><path d="M486.29,346c-0.15-1.66-.27-4.82-0.77-7.91-1.18-7.25-3.22-14.21-8.4-19.75s-11.37-5.63-16.89-.5a18.34,18.34,0,0,1-4.47,3.1c-12.51,6-25,12-37.64,17.73-4,1.83-4.78,5.09-4.77,8.76s0.87,6.88,4.87,8.7c12.81,5.85,25.51,11.95,38.23,18a13.12,13.12,0,0,1,3.41,2.38c5.93,5.73,12.33,5.58,17.76-.67a28,28,0,0,0,3.91-6C485,362.87,486.18,355.3,486.29,346Zm-35.5,28.11c-2.67-1.27-4.89-3.51-7.54-.34-0.43.51-2,.55-2.76,0.22-3.07-1.32-6.08-2.8-9-4.39a2.82,2.82,0,0,1-1.31-2.07c0.12-4.34-3.15-4.6-6.07-5.62-0.66,8.65.83,11.24,8.3,14.83,1.27,0.61,2.52,1.25,3.8,1.83C442.45,381.49,446.64,380.27,450.8,374.13Z" transform="translate(-345.13 -283.18)" fill="#fff"/><path d="M486.29,346c-0.11,9.27-1.3,16.84-4.76,23.89a28,28,0,0,1-3.91,6c-5.43,6.25-11.83,6.4-17.76.67a13.14,13.14,0,0,0-3.41-2.37c-12.72-6.06-25.42-12.15-38.23-18-4-1.82-4.87-5-4.87-8.7s0.77-6.93,4.77-8.76c12.61-5.77,25.13-11.75,37.64-17.73a18.34,18.34,0,0,0,4.47-3.1c5.52-5.13,11.7-5.05,16.89.5s7.22,12.5,8.4,19.75C486,341.21,486.14,344.36,486.29,346Zm-29.5,1.21c0,8.38,1.56,15.87,4.7,21.36,1.62,2.83,3.3,6.08,7.05,6s5.61-3.2,7-6.14c6.5-14,6.5-28.11,0-42.1-1.36-2.94-3.28-6.1-7-6.14-3.87,0-5.65,3.29-7.22,6.27C457.94,333,456.75,340,456.79,347.23ZM454.2,327c-11,5-21.55,9.75-32,14.65-0.87.41-1.27,1.84-1.89,2.8,1.13,0.26,2.41,1,3.37.71q13.18-4.05,26.24-8.47a4.26,4.26,0,0,0,2.24-2.32C453,332.21,453.43,329.88,454.2,327Z" transform="translate(-345.13 -283.18)"/><path d="M450.8,374.13c-4.15,6.14-8.34,7.36-14.6,4.48-1.28-.59-2.53-1.23-3.8-1.83-7.47-3.59-9-6.18-8.3-14.83,2.92,1,6.19,1.28,6.07,5.62a2.82,2.82,0,0,0,1.31,2.07c2.94,1.58,6,3.07,9,4.39,0.78,0.33,2.33.29,2.76-.22C445.91,370.62,448.13,372.85,450.8,374.13Z" transform="translate(-345.13 -283.18)"/><path d="M456.79,347.23c0-7.26,1.15-14.27,4.56-20.75,1.57-3,3.35-6.31,7.22-6.27,3.69,0,5.6,3.2,7,6.14,6.49,14,6.49,28.11,0,42.1-1.37,2.94-3.29,6.07-7,6.14s-5.43-3.16-7.05-6C458.35,363.1,456.75,355.61,456.79,347.23Zm3.68-8a26.67,26.67,0,0,0-.26,14.91,3,3,0,0,0,2.36,1.65c4.21-.38,7.34-4.91,6.8-9.51A7.93,7.93,0,0,0,460.47,339.19Z" transform="translate(-345.13 -283.18)" fill="#fff"/><path d="M454.2,327c-0.77,2.85-1.24,5.17-2.06,7.37a4.26,4.26,0,0,1-2.24,2.32q-13.06,4.4-26.24,8.47c-1,.3-2.24-0.45-3.37-0.71,0.62-1,1-2.39,1.89-2.8C432.65,336.79,443.2,332,454.2,327Z" transform="translate(-345.13 -283.18)" fill="#fff"/><path d="M460.47,339.19a7.94,7.94,0,0,1,8.9,7.05c0.54,4.6-2.6,9.13-6.8,9.51a3,3,0,0,1-2.36-1.65A26.65,26.65,0,0,1,460.47,339.19Z" transform="translate(-345.13 -283.18)"/><path d="M367.32,493.6l2.88-5.1a4,4,0,1,1,7,4l-1.57,2.78,3.88,2.18-1.31,2.32Zm4.75-3.64-1.39,2.47,2.94,1.66,1.39-2.47A1.7,1.7,0,1,0,372.06,490Z" transform="translate(-345.13 -283.18)" fill="#fff"/><path d="M376.05,485.14l1.17-2.08,1.08,0.61a3.88,3.88,0,0,1,.16-3.23l2,1.14a3.09,3.09,0,0,0-.39.54,3,3,0,0,0-.2,2.45l5.22,2.94-1.17,2.08Z" transform="translate(-345.13 -283.18)" fill="#fff"/><path d="M383,482a4.79,4.79,0,1,1,6.5-1.83A4.59,4.59,0,0,1,383,482Zm3.49-6.2a2.34,2.34,0,1,0,1.16,3.33A2.39,2.39,0,0,0,386.52,475.78Z" transform="translate(-345.13 -283.18)" fill="#fff"/><path d="M393.09,461.71a1.25,1.25,0,0,0-1.92.47,2.4,2.4,0,0,0,0,2.15l5.33,3-1.18,2.09-5-2.81a1.25,1.25,0,0,0-1.92.47,2.43,2.43,0,0,0,0,2.16l5.31,3-1.17,2.08-7.9-4.45,1.17-2.08,1,0.58a4,4,0,0,1,.23-3.27,2.4,2.4,0,0,1,2.67-1.38,3.84,3.84,0,0,1,.09-3.52,2.42,2.42,0,0,1,3.7-1l5.7,3.22-1.18,2.09Z" transform="translate(-345.13 -283.18)" fill="#fff"/><path d="M396.17,458.66a4.79,4.79,0,1,1,6.5-1.83A4.59,4.59,0,0,1,396.17,458.66Zm3.49-6.2a2.34,2.34,0,1,0,1.16,3.33A2.39,2.39,0,0,0,399.66,452.46Z" transform="translate(-345.13 -283.18)" fill="#fff"/><path d="M404,449.48l-4.12-2.32-0.74,1.31-1.82-1,0.74-1.31-2.16-1.22,1.18-2.09,2.16,1.22,0.9-1.6,1.82,1-0.9,1.6,3.56,2a0.87,0.87,0,0,0,1.27-.23A1.31,1.31,0,0,0,406,446l1.82,0.44a2.94,2.94,0,0,1-.47,2A2.27,2.27,0,0,1,404,449.48Z" transform="translate(-345.13 -283.18)" fill="#fff"/><path d="M402.74,437.32c1.33-2.35,4-3,6.58-1.51l0.46,0.26-3.31,5.87a2.44,2.44,0,0,0,3.11-1.24,3.7,3.7,0,0,0,.4-2.55l1.86-.16a5.65,5.65,0,0,1-.74,3.87A4.76,4.76,0,1,1,402.74,437.32Zm2.3,3.86,2.19-3.89a2.1,2.1,0,0,0-2.85,1A2.18,2.18,0,0,0,405,441.18Z" transform="translate(-345.13 -283.18)" fill="#fff"/></svg>