<!-- Generator: Adobe Illustrator 19.1.0, SVG Export Plug-In  -->
<svg version="1.1"
	 xmlns="http://www.w3.org/2000/svg" xmlns:xlink="http://www.w3.org/1999/xlink" xmlns:a="http://ns.adobe.com/AdobeSVGViewerExtensions/3.0/"
	 x="0px" y="0px" width="118.667px" height="138.253px" viewBox="0 0 118.667 138.253"
	 style="enable-background:new 0 0 118.667 138.253;" xml:space="preserve">
<style type="text/css">
	.st0{fill:#999999;stroke:#231F20;stroke-miterlimit:10;}
	.st1{fill-rule:evenodd;clip-rule:evenodd;fill:#999999;}
	.st2{fill:#999999;}
	.st3{fill:#4D4D4D;}
</style>
<defs>
</defs>
<path class="st0" d="M57.006,43.013"/>
<path class="st1" d="M118.667,78.924c0-32.762-26.576-59.33-59.334-59.33C26.569,19.594,0,46.161,0,78.924
	c0,32.756,26.569,59.33,59.333,59.33C92.091,138.253,118.667,111.679,118.667,78.924L118.667,78.924z M5.4,78.924
	c0-29.783,24.149-53.93,53.933-53.93s53.934,24.147,53.934,53.93s-24.149,53.93-53.934,53.93S5.4,108.706,5.4,78.924L5.4,78.924z
	 M5.4,78.924"/>
<g>
	<g>
		<path class="st2" d="M90.072,63.472l-2.926,2.929L69.582,48.84l2.927-2.929c3.234-3.234,8.476-3.234,11.71,0l5.853,5.855
			C93.302,54.998,93.302,60.239,90.072,63.472L90.072,63.472z M49.094,98.592c-0.808,0.808-0.808,2.118,0,2.927
			c0.808,0.812,2.118,0.812,2.926,0l32.199-32.191l-2.93-2.929L49.094,98.592z M34.458,83.959c-0.808,0.808-0.808,2.118,0,2.927
			c0.808,0.808,2.118,0.808,2.926,0l32.199-32.193l-2.926-2.927L34.458,83.959z M72.505,57.618L40.311,89.813
			c-1.617,1.612-1.613,4.236,0,5.853c1.617,1.617,4.236,1.625,5.856-0.005l32.195-32.189L72.505,57.618z M46.159,104.437
			c-0.99-0.99-1.468-2.248-1.645-3.541c-0.421,0.065-0.845,0.126-1.278,0.126c-2.211,0-4.288-0.865-5.853-2.429
			c-1.564-1.569-2.425-3.642-2.425-5.853c0-0.404,0.061-0.796,0.118-1.188c-1.338-0.182-2.575-0.768-3.545-1.738
			c-0.093-0.094-0.126-0.219-0.21-0.32l-5.053,20.219l20.166-5.049C46.345,104.582,46.244,104.521,46.159,104.437L46.159,104.437z
			 M46.159,104.437"/>
	</g>
</g>
<g>
	<path class="st3" d="M42.288,0h8.498v2.251h-5.941V4.79h5.815v2.25h-5.815v2.719h5.941v2.251h-8.498V0z"/>
	<path class="st3" d="M52.782,0h4.735c3.763,0,6.374,2.395,6.374,6.014s-2.611,5.996-6.374,5.996h-4.735V0z M57.517,9.759
		c2.377,0,3.763-1.71,3.763-3.745c0-2.124-1.296-3.763-3.763-3.763h-2.179v7.508H57.517z"/>
	<path class="st3" d="M65.705,0h2.557v12.01h-2.557V0z"/>
	<path class="st3" d="M73.41,2.251h-3.511V0h9.579v2.251h-3.493v9.759H73.41V2.251z"/>
</g>
</svg>