<!-- Generator: Adobe Illustrator 19.1.0, SVG Export Plug-In  -->
<svg version="1.1"
	 xmlns="http://www.w3.org/2000/svg" xmlns:xlink="http://www.w3.org/1999/xlink" xmlns:a="http://ns.adobe.com/AdobeSVGViewerExtensions/3.0/"
	 x="0px" y="0px" width="118.667px" height="138.432px" viewBox="0 0 118.667 138.432"
	 style="enable-background:new 0 0 118.667 138.432;" xml:space="preserve">
<style type="text/css">
	.st0{fill-rule:evenodd;clip-rule:evenodd;fill:#999999;}
	.st1{fill:#999999;}
	.st2{fill:#4D4D4D;}
</style>
<defs>
</defs>
<path class="st0" d="M118.667,79.102c0-32.762-26.576-59.33-59.334-59.33C26.569,19.773,0,46.34,0,79.102
	c0,32.756,26.569,59.33,59.333,59.33C92.091,138.432,118.667,111.858,118.667,79.102L118.667,79.102z M5.4,79.102
	c0-29.783,24.149-53.93,53.933-53.93s53.934,24.147,53.934,53.93s-24.149,53.93-53.934,53.93S5.4,108.885,5.4,79.102L5.4,79.102z
	 M5.4,79.102"/>
<g>
	<path class="st1" d="M48.057,65.227l-5.248-4.961c0.607-1.11,0.993-2.364,0.993-3.716c0-4.298-3.482-7.781-7.781-7.781
		s-7.783,3.482-7.783,7.781c0,4.289,3.485,7.774,7.783,7.774c1.513,0,2.918-0.449,4.11-1.201l5.238,4.952
		C46.166,67.027,47.053,66.068,48.057,65.227L48.057,65.227z M48.057,65.227"/>
	<path class="st1" d="M70.23,64.601l6.967-11.722c0.688,0.195,1.396,0.339,2.148,0.339c4.298,0,7.783-3.485,7.783-7.783
		c0-4.289-3.485-7.772-7.783-7.772s-7.774,3.473-7.774,7.772c0,2.132,0.862,4.067,2.249,5.472l-6.948,11.687
		C68.071,63.141,69.189,63.813,70.23,64.601L70.23,64.601z M70.23,64.601"/>
	<path class="st1" d="M94.255,74.415c-3.34,0-6.169,2.132-7.272,5.096l-9.681-0.958c0,0.071,0.009,0.142,0.009,0.213
		c0,1.263-0.133,2.499-0.385,3.691l9.672,0.949c0.591,3.716,3.78,6.563,7.657,6.563c4.298,0,7.783-3.482,7.783-7.771
		C102.038,77.9,98.554,74.415,94.255,74.415L94.255,74.415z M94.255,74.415"/>
	<path class="st1" d="M67.552,104.997l-2.169-9.457c-1.217,0.42-2.49,0.724-3.815,0.878l2.169,9.466
		c-2.49,1.298-4.202,3.867-4.202,6.868c0,4.289,3.475,7.771,7.783,7.771c4.289,0,7.774-3.482,7.774-7.771
		C75.092,108.534,71.734,105.123,67.552,104.997L67.552,104.997z M67.552,104.997"/>
	<path class="st1" d="M42.163,82.519l-12.045,4.039c-1.387-2.123-3.787-3.528-6.508-3.528c-4.298,0-7.774,3.473-7.774,7.772
		s3.475,7.783,7.774,7.783s7.781-3.484,7.781-7.783c0-0.179-0.034-0.349-0.053-0.518l12.088-4.049
		C42.881,85.055,42.45,83.819,42.163,82.519L42.163,82.519z M42.163,82.519"/>
	<path class="st1" d="M72.871,78.766c0,7.37-5.965,13.335-13.335,13.335c-7.359,0-13.333-5.965-13.333-13.335
		c0-7.359,5.974-13.333,13.333-13.333C66.906,65.433,72.871,71.408,72.871,78.766L72.871,78.766z M72.871,78.766"/>
</g>
<g>
	<path class="st2" d="M30.222,8.553c0.846,0.882,2.16,1.62,3.817,1.62c1.404,0,2.088-0.648,2.088-1.332
		c0-0.883-1.116-1.135-2.431-1.459c-1.962-0.45-4.483-0.99-4.483-3.727C29.214,1.656,30.942,0,33.769,0
		c1.908,0,3.493,0.576,4.682,1.674l-1.423,1.873c-0.972-0.9-2.269-1.314-3.493-1.314c-1.098,0-1.71,0.486-1.71,1.206
		c0,0.774,1.098,1.026,2.395,1.333c1.98,0.468,4.501,1.062,4.501,3.781c0,2.196-1.566,3.853-4.807,3.853
		c-2.305,0-3.962-0.774-5.078-1.908L30.222,8.553z"/>
	<path class="st2" d="M48.675,7.148h-5.672v5.041h-2.557V0.18h2.557v4.718h5.672V0.18h2.574v12.01h-2.574V7.148z"/>
	<path class="st2" d="M61.148,10.155h-5.149l-0.756,2.034h-2.917l4.646-12.01h3.205l4.627,12.01h-2.917L61.148,10.155z
		 M56.701,7.904h3.745l-1.872-5.168L56.701,7.904z"/>
	<path class="st2" d="M70.344,7.922h-1.872v4.268h-2.557V0.18h5.617c2.503,0,4.033,1.639,4.033,3.871
		c0,2.125-1.332,3.259-2.628,3.565l2.7,4.573h-2.935L70.344,7.922z M71.155,2.431h-2.683v3.241h2.683
		c1.026,0,1.801-0.612,1.801-1.621C72.956,3.043,72.181,2.431,71.155,2.431z"/>
	<path class="st2" d="M77.49,0.18h8.498v2.251h-5.941V4.97h5.815v2.25h-5.815v2.719h5.941v2.251H77.49V0.18z"/>
</g>
</svg>