<!-- Generator: Adobe Illustrator 19.1.0, SVG Export Plug-In  -->
<svg version="1.1"
	 xmlns="http://www.w3.org/2000/svg" xmlns:xlink="http://www.w3.org/1999/xlink" xmlns:a="http://ns.adobe.com/AdobeSVGViewerExtensions/3.0/"
	 x="0px" y="0px" width="118.667px" height="164.178px" viewBox="0 0 118.667 164.178"
	 style="enable-background:new 0 0 118.667 164.178;" xml:space="preserve">
<style type="text/css">
	.st0{fill-rule:evenodd;clip-rule:evenodd;fill:#999999;}
	.st1{fill:#999999;}
	.st2{fill:#4D4D4D;}
</style>
<defs>
</defs>
<path class="st0" d="M118.667,59.33C118.667,26.567,92.091,0,59.333,0C26.569,0,0,26.567,0,59.33
	c0,32.756,26.569,59.33,59.333,59.33C92.091,118.659,118.667,92.085,118.667,59.33L118.667,59.33z M5.4,59.33
	C5.4,29.547,29.549,5.4,59.333,5.4s53.934,24.147,53.934,53.93s-24.149,53.93-53.934,53.93S5.4,89.113,5.4,59.33L5.4,59.33z
	 M5.4,59.33"/>
<g>
	<path class="st1" d="M102.804,60.449v6.605c0,3.936-3.204,7.154-7.154,7.154h-6.334c-1.619,0-2.934-1.318-2.934-2.936V56.22
		c0-1.5,1.133-2.721,2.588-2.892C85.756,40.045,73.801,30.14,59.537,30.14c-14.253,0-26.208,9.905-29.423,23.189
		c1.445,0.171,2.577,1.392,2.577,2.892v15.051c0,1.619-1.315,2.936-2.922,2.936h-6.345c-3.95,0-7.154-3.218-7.154-7.154v-6.605
		c0-3.95,3.204-7.154,7.154-7.154h0.657C27.415,36.766,42.046,24.27,59.537,24.27c17.501,0,32.133,12.496,35.467,29.025h0.657
		C99.6,53.284,102.804,56.499,102.804,60.449L102.804,60.449z M68.384,74.379c-1.003,1.586-3.041,2.688-5.428,2.688
		c-3.375,0-6.107-2.179-6.107-4.889c0-2.696,2.732-4.886,6.107-4.886c2.387,0,4.425,1.099,5.428,2.685H83.09
		c1.199-2.934,1.867-6.149,1.867-9.527c0-14.038-11.383-25.421-25.421-25.421c-14.037,0-25.421,11.383-25.421,25.421
		c0,14.037,11.383,25.421,25.421,25.421c8.892,0,16.703-4.574,21.255-11.48H68.384V74.379z M68.384,74.379"/>
</g>
<g>
	<path class="st2" d="M17.385,136.367c0-3.69,2.791-6.212,6.392-6.212c2.647,0,4.178,1.44,5.023,2.936l-2.196,1.08
		c-0.504-0.973-1.585-1.746-2.827-1.746c-2.179,0-3.763,1.674-3.763,3.942s1.584,3.943,3.763,3.943c1.242,0,2.323-0.756,2.827-1.746
		l2.196,1.062c-0.864,1.495-2.376,2.953-5.023,2.953C20.176,142.579,17.385,140.058,17.385,136.367z"/>
	<path class="st2" d="M36.016,130.155c3.638,0,6.284,2.593,6.284,6.212s-2.646,6.212-6.284,6.212c-3.619,0-6.266-2.593-6.266-6.212
		S32.397,130.155,36.016,130.155z M36.016,132.424c-2.215,0-3.637,1.692-3.637,3.942c0,2.233,1.422,3.943,3.637,3.943
		s3.655-1.71,3.655-3.943C39.672,134.117,38.231,132.424,36.016,132.424z"/>
	<path class="st2" d="M46.653,134.531v7.832h-2.557v-12.01h2.629l5.563,7.544v-7.544h2.557v12.01h-2.467L46.653,134.531z"/>
	<path class="st2" d="M59.991,132.604H56.48v-2.251h9.579v2.251h-3.493v9.759h-2.575V132.604z"/>
	<path class="st2" d="M74.086,140.329h-5.149l-0.756,2.034h-2.917l4.646-12.01h3.205l4.627,12.01h-2.917L74.086,140.329z
		 M69.638,138.078h3.745l-1.872-5.168L69.638,138.078z"/>
	<path class="st2" d="M77.666,136.367c0-3.69,2.791-6.212,6.392-6.212c2.647,0,4.178,1.44,5.023,2.936l-2.196,1.08
		c-0.504-0.973-1.585-1.746-2.827-1.746c-2.179,0-3.763,1.674-3.763,3.942s1.584,3.943,3.763,3.943c1.242,0,2.323-0.756,2.827-1.746
		l2.196,1.062c-0.864,1.495-2.376,2.953-5.023,2.953C80.457,142.579,77.666,140.058,77.666,136.367z"/>
	<path class="st2" d="M93.381,132.604H89.87v-2.251h9.579v2.251h-3.493v9.759h-2.575V132.604z"/>
	<path class="st2" d="M4.794,157.966c0-3.69,2.791-6.212,6.392-6.212c2.646,0,4.178,1.44,5.023,2.936l-2.196,1.08
		c-0.504-0.973-1.585-1.746-2.827-1.746c-2.179,0-3.763,1.674-3.763,3.942s1.584,3.943,3.763,3.943c1.242,0,2.323-0.756,2.827-1.746
		l2.196,1.062c-0.864,1.495-2.377,2.953-5.023,2.953C7.585,164.178,4.794,161.658,4.794,157.966z"/>
	<path class="st2" d="M17.736,151.953h2.593v7.13c0,1.675,0.972,2.827,2.827,2.827c1.854,0,2.809-1.152,2.809-2.827v-7.13h2.61
		v7.202c0,2.989-1.765,5.023-5.419,5.023c-3.655,0-5.42-2.053-5.42-5.005V151.953z"/>
	<path class="st2" d="M31.506,160.326c0.846,0.882,2.16,1.62,3.817,1.62c1.404,0,2.088-0.648,2.088-1.332
		c0-0.883-1.116-1.135-2.431-1.459c-1.962-0.45-4.483-0.99-4.483-3.727c0-1.999,1.729-3.655,4.556-3.655
		c1.908,0,3.493,0.576,4.682,1.675l-1.423,1.872c-0.972-0.9-2.269-1.314-3.493-1.314c-1.098,0-1.71,0.486-1.71,1.206
		c0,0.774,1.099,1.026,2.395,1.333c1.98,0.468,4.501,1.062,4.501,3.781c0,2.196-1.566,3.853-4.807,3.853
		c-2.305,0-3.962-0.774-5.078-1.908L31.506,160.326z"/>
	<path class="st2" d="M44.376,154.204h-3.511v-2.251h9.579v2.251h-3.493v9.759h-2.575V154.204z"/>
	<path class="st2" d="M57.337,151.754c3.638,0,6.284,2.593,6.284,6.212s-2.646,6.212-6.284,6.212c-3.619,0-6.266-2.593-6.266-6.212
		S53.718,151.754,57.337,151.754z M57.337,154.024c-2.215,0-3.637,1.692-3.637,3.942c0,2.233,1.422,3.943,3.637,3.943
		s3.655-1.71,3.655-3.943C60.992,155.716,59.551,154.024,57.337,154.024z"/>
	<path class="st2" d="M75.861,155.554l-3.386,8.408h-1.116l-3.385-8.408v8.408h-2.557v-12.01h3.583l2.917,7.257l2.917-7.257h3.601
		v12.01h-2.574V155.554z"/>
	<path class="st2" d="M80.807,151.953h8.498v2.251h-5.941v2.539h5.815v2.25h-5.815v2.719h5.941v2.251h-8.498V151.953z"/>
	<path class="st2" d="M95.73,159.695h-1.872v4.268h-2.557v-12.01h5.617c2.503,0,4.033,1.639,4.033,3.871
		c0,2.125-1.332,3.259-2.628,3.565l2.7,4.573H98.09L95.73,159.695z M96.541,154.204h-2.683v3.241h2.683
		c1.026,0,1.801-0.612,1.801-1.621C98.342,154.816,97.567,154.204,96.541,154.204z"/>
	<path class="st2" d="M103.451,160.326c0.846,0.882,2.16,1.62,3.817,1.62c1.404,0,2.088-0.648,2.088-1.332
		c0-0.883-1.116-1.135-2.431-1.459c-1.962-0.45-4.483-0.99-4.483-3.727c0-1.999,1.729-3.655,4.556-3.655
		c1.908,0,3.493,0.576,4.682,1.675l-1.423,1.872c-0.972-0.9-2.269-1.314-3.493-1.314c-1.098,0-1.71,0.486-1.71,1.206
		c0,0.774,1.099,1.026,2.395,1.333c1.98,0.468,4.501,1.062,4.501,3.781c0,2.196-1.566,3.853-4.807,3.853
		c-2.305,0-3.962-0.774-5.078-1.908L103.451,160.326z"/>
</g>
</svg>