<!-- Generator: Adobe Illustrator 19.1.0, SVG Export Plug-In  -->
<svg version="1.1"
	 xmlns="http://www.w3.org/2000/svg" xmlns:xlink="http://www.w3.org/1999/xlink" xmlns:a="http://ns.adobe.com/AdobeSVGViewerExtensions/3.0/"
	 x="0px" y="0px" width="118.667px" height="142.587px" viewBox="0 0 118.667 142.587"
	 style="enable-background:new 0 0 118.667 142.587;" xml:space="preserve">
<style type="text/css">
	.st0{fill-rule:evenodd;clip-rule:evenodd;fill:#999999;}
	.st1{fill:#999999;}
	.st2{fill:#4D4D4D;}
</style>
<defs>
</defs>
<path class="st0" d="M118.667,59.334C118.667,26.569,92.091,0,59.333,0C26.569,0,0,26.569,0,59.334
	c0,32.758,26.569,59.334,59.333,59.334C92.091,118.667,118.667,92.092,118.667,59.334L118.667,59.334z M5.4,59.334
	C5.4,29.549,29.549,5.4,59.333,5.4s53.934,24.149,53.934,53.934s-24.149,53.933-53.934,53.933S5.4,89.119,5.4,59.334L5.4,59.334z
	 M5.4,59.334"/>
<path class="st1" d="M45.523,55.07"/>
<g>
	<path class="st1" d="M28.086,81.454l9.325,9.325L60.73,67.46l23.319,23.319l9.325-9.325L70.055,58.135l23.319-23.319l-9.325-9.325
		L60.73,48.81L37.411,25.491l-9.325,9.325l23.319,23.319L28.086,81.454z M28.086,81.454"/>
</g>
<g>
	<path class="st2" d="M25.765,136.375c0-3.69,2.791-6.212,6.392-6.212c2.647,0,4.178,1.44,5.023,2.936l-2.196,1.08
		c-0.504-0.973-1.585-1.746-2.827-1.746c-2.179,0-3.763,1.674-3.763,3.942s1.584,3.943,3.763,3.943c1.242,0,2.323-0.756,2.827-1.746
		l2.196,1.062c-0.864,1.495-2.376,2.953-5.023,2.953C28.556,142.587,25.765,140.066,25.765,136.375z"/>
	<path class="st2" d="M46.125,140.337h-5.149l-0.756,2.034h-2.917l4.646-12.01h3.205l4.627,12.01h-2.917L46.125,140.337z
		 M41.678,138.086h3.745l-1.872-5.168L41.678,138.086z"/>
	<path class="st2" d="M53.449,134.539v7.832h-2.557v-12.01h2.629l5.563,7.544v-7.544h2.557v12.01h-2.467L53.449,134.539z"/>
	<path class="st2" d="M63.439,136.375c0-3.69,2.791-6.212,6.392-6.212c2.647,0,4.178,1.44,5.023,2.936l-2.196,1.08
		c-0.504-0.973-1.585-1.746-2.827-1.746c-2.179,0-3.763,1.674-3.763,3.942s1.584,3.943,3.763,3.943c1.242,0,2.323-0.756,2.827-1.746
		l2.196,1.062c-0.864,1.495-2.376,2.953-5.023,2.953C66.23,142.587,63.439,140.066,63.439,136.375z"/>
	<path class="st2" d="M76.381,130.361h8.498v2.251h-5.941v2.539h5.815v2.25h-5.815v2.719h5.941v2.251h-8.498V130.361z"/>
	<path class="st2" d="M86.874,130.361h2.557v9.759h5.077v2.251h-7.634V130.361z"/>
</g>
</svg>