<!-- Generator: Adobe Illustrator 19.1.0, SVG Export Plug-In  -->
<svg version="1.1"
	 xmlns="http://www.w3.org/2000/svg" xmlns:xlink="http://www.w3.org/1999/xlink" xmlns:a="http://ns.adobe.com/AdobeSVGViewerExtensions/3.0/"
	 x="0px" y="0px" width="118.667px" height="138.45px" viewBox="0 0 118.667 138.45"
	 style="enable-background:new 0 0 118.667 138.45;" xml:space="preserve">
<style type="text/css">
	.st0{fill-rule:evenodd;clip-rule:evenodd;fill:#999999;}
	.st1{fill:#999999;}
	.st2{fill:#4D4D4D;}
</style>
<defs>
</defs>
<path class="st0" d="M118.667,79.117c0-32.765-26.576-59.334-59.334-59.334C26.569,19.783,0,46.352,0,79.117
	c0,32.758,26.569,59.334,59.333,59.334C92.091,138.45,118.667,111.875,118.667,79.117L118.667,79.117z M5.4,79.117
	c0-29.785,24.149-53.934,53.933-53.934s53.934,24.149,53.934,53.934S89.118,133.05,59.333,133.05S5.4,108.902,5.4,79.117L5.4,79.117
	z M5.4,79.117"/>
<path class="st0" d="M118.667,79.113c0-32.762-26.576-59.33-59.334-59.33C26.569,19.783,0,46.351,0,79.113
	c0,32.756,26.569,59.33,59.333,59.33C92.091,138.442,118.667,111.869,118.667,79.113L118.667,79.113z M5.4,79.113
	c0-29.783,24.149-53.93,53.933-53.93s53.934,24.147,53.934,53.93s-24.149,53.93-53.934,53.93S5.4,108.896,5.4,79.113L5.4,79.113z
	 M5.4,79.113"/>
<path class="st1" d="M47.523,73.853"/>
<g>
	<path class="st1" d="M69.336,100.58c-0.469,0.671-1.168,1.163-1.963,1.377l-3.946,1.078c-0.311,0.09-0.63,0.131-0.956,0.131
		c-0.726,0-1.43-0.221-2.024-0.635c-0.871-0.609-1.417-1.563-1.508-2.6l-0.345-4.079c-0.083-0.835,0.145-1.672,0.623-2.35
		l0.145-0.207H45.275c-1.141,0-2.06-0.933-2.06-2.074c0-1.133,0.918-2.074,2.06-2.074h17.052l3.81-5.44H45.275
		c-1.141,0-2.06-0.94-2.06-2.074c0-1.14,0.918-2.074,2.06-2.074l23.799-0.062l8.924-12.794v-9.478c0-1.556-1.21-2.814-2.759-2.814
		h-6.836v5.406c0,2.552-2.088,4.569-4.631,4.569H50.03c-2.557,0-4.569-2.017-4.569-4.569v-5.406h-6.905
		c-1.555,0-2.814,1.258-2.814,2.814v48.353c0,1.555,1.258,2.883,2.814,2.883h36.677c1.556,0,2.759-1.327,2.759-2.883V88.283
		L69.336,100.58z M45.275,69.965H68.52c1.134,0,2.062,0.941,2.062,2.074c0,1.134-0.927,2.074-2.062,2.074H45.275
		c-1.141,0-2.06-0.94-2.06-2.074C43.215,70.906,44.133,69.965,45.275,69.965L45.275,69.965z M45.275,69.965"/>
	<path class="st1" d="M50.072,61.67h13.727c1.037,0,1.881-0.844,1.881-1.886V51.89c0-1.044-0.844-1.888-1.881-1.888h-2.072
		c-0.014-2.654-2.171-4.804-4.833-4.804c-2.662,0-4.812,2.15-4.831,4.804h-1.991c-1.044,0-1.888,0.844-1.888,1.888v7.894
		C48.184,60.826,49.028,61.67,50.072,61.67L50.072,61.67z M56.901,47.873c1.182,0,2.136,0.954,2.15,2.136h-4.314
		C54.751,48.827,55.712,47.873,56.901,47.873L56.901,47.873z M56.901,47.873"/>
	<path class="st1" d="M95.362,57.91c-0.062-0.352-0.262-0.664-0.552-0.864l-3.442-2.4c-0.228-0.159-0.499-0.235-0.761-0.235
		c-0.421,0-0.837,0.195-1.092,0.568L65.169,89.894l5.62,3.927l24.352-34.916C95.342,58.614,95.425,58.255,95.362,57.91L95.362,57.91
		z M95.362,57.91"/>
	<path class="st1" d="M61.332,95.597l0.352,4.098c0.014,0.235,0.138,0.449,0.333,0.58c0.138,0.097,0.297,0.145,0.455,0.145
		c0.071,0,0.14-0.005,0.209-0.027l3.967-1.085c0.179-0.05,0.338-0.159,0.449-0.311l1.486-2.136l-5.627-3.927l-1.493,2.136
		C61.361,95.224,61.311,95.41,61.332,95.597L61.332,95.597z M61.332,95.597"/>
</g>
<g>
	<path class="st2" d="M35.692,0.197h6.319c2.287,0,3.457,1.459,3.457,3.062c0,1.512-0.936,2.52-2.07,2.754
		c1.278,0.197,2.305,1.439,2.305,2.953c0,1.801-1.206,3.24-3.493,3.24h-6.518V0.197z M41.454,5.006c0.864,0,1.404-0.541,1.404-1.297
		s-0.54-1.314-1.404-1.314h-3.205v2.611H41.454z M41.544,9.992c0.973,0,1.549-0.521,1.549-1.387c0-0.756-0.54-1.404-1.549-1.404
		h-3.295v2.791H41.544z"/>
	<path class="st2" d="M53.315,0C56.953,0,59.6,2.592,59.6,6.211s-2.646,6.213-6.284,6.213c-3.619,0-6.266-2.594-6.266-6.213
		S49.696,0,53.315,0z M53.315,2.268c-2.215,0-3.637,1.693-3.637,3.943c0,2.234,1.422,3.943,3.637,3.943s3.655-1.709,3.655-3.943
		C56.971,3.961,55.53,2.268,53.315,2.268z"/>
	<path class="st2" d="M67.086,0c3.637,0,6.284,2.592,6.284,6.211s-2.647,6.213-6.284,6.213c-3.619,0-6.266-2.594-6.266-6.213
		S63.467,0,67.086,0z M67.086,2.268c-2.215,0-3.637,1.693-3.637,3.943c0,2.234,1.422,3.943,3.637,3.943s3.655-1.709,3.655-3.943
		C70.741,3.961,69.301,2.268,67.086,2.268z"/>
	<path class="st2" d="M78.659,7.4l-0.937,1.115v3.691h-2.557V0.197h2.557v5.367l4.249-5.367h3.151l-4.771,5.637l5.096,6.373h-3.151
		L78.659,7.4z"/>
</g>
</svg>