<!-- Generator: Adobe Illustrator 19.1.0, SVG Export Plug-In  -->
<svg version="1.1"
	 xmlns="http://www.w3.org/2000/svg" xmlns:xlink="http://www.w3.org/1999/xlink" xmlns:a="http://ns.adobe.com/AdobeSVGViewerExtensions/3.0/"
	 x="0px" y="0px" width="73.807px" height="53.553px" viewBox="0 0 73.807 53.553"
	 style="enable-background:new 0 0 73.807 53.553;" xml:space="preserve">
<style type="text/css">
	.st0{fill:#FFFFFF;}
	.st1{fill:#666666;}
	.st2{fill:#CCCCCC;}
</style>
<defs>
</defs>
<g>
	<path class="st0" d="M56.737,16.955c-0.082-0.88-0.142-2.558-0.41-4.202c-0.628-3.851-1.714-7.549-4.473-10.491
		c-2.766-2.95-6.055-2.991-8.995-0.266c-0.702,0.651-1.52,1.235-2.382,1.647c-6.664,3.178-13.33,6.356-20.047,9.42
		c-2.133,0.973-2.544,2.703-2.542,4.654c0.002,1.96,0.465,3.655,2.594,4.624c6.824,3.107,13.589,6.346,20.362,9.563
		c0.659,0.313,1.292,0.755,1.818,1.261c3.16,3.043,6.564,2.965,9.458-0.356c0.824-0.945,1.527-2.039,2.082-3.164
		C56.047,25.903,56.678,21.882,56.737,16.955z M37.832,31.886c-1.422-0.677-2.603-1.865-4.016-0.179
		c-0.228,0.272-1.054,0.293-1.468,0.116c-1.636-0.699-3.238-1.488-4.806-2.329c-0.342-0.184-0.707-0.73-0.696-1.099
		c0.063-2.304-1.677-2.442-3.231-2.984c-0.35,4.597,0.439,5.97,4.419,7.88c0.674,0.324,1.342,0.662,2.021,0.975
		C33.391,35.799,35.619,35.15,37.832,31.886z"/>
	<path class="st1" d="M56.737,16.955c-0.059,4.927-0.69,8.948-2.536,12.69c-0.555,1.125-1.258,2.219-2.082,3.164
		c-2.894,3.321-6.299,3.399-9.458,0.356c-0.525-0.506-1.158-0.948-1.818-1.261c-6.773-3.217-13.538-6.456-20.362-9.563
		c-2.129-0.969-2.592-2.664-2.594-4.624c-0.002-1.951,0.409-3.68,2.542-4.654c6.717-3.065,13.383-6.242,20.047-9.42
		c0.862-0.411,1.68-0.996,2.382-1.647c2.94-2.724,6.229-2.683,8.995,0.266c2.758,2.942,3.844,6.64,4.473,10.491
		C56.595,14.397,56.655,16.075,56.737,16.955z M41.026,17.596c-0.02,4.452,0.832,8.429,2.505,11.349
		c0.863,1.506,1.758,3.228,3.756,3.186c1.967-0.041,2.988-1.701,3.717-3.264c3.463-7.435,3.462-14.93,0.005-22.366
		c-0.726-1.562-1.745-3.242-3.711-3.261c-2.061-0.02-3.007,1.746-3.845,3.333C41.635,10.015,41.004,13.739,41.026,17.596z
		 M39.645,6.869c-5.861,2.658-11.478,5.18-17.058,7.783c-0.466,0.217-0.677,0.979-1.006,1.488c0.603,0.139,1.284,0.533,1.796,0.377
		c4.679-1.435,9.336-2.942,13.975-4.502c0.491-0.165,1.004-0.733,1.193-1.233C38.986,9.618,39.236,8.381,39.645,6.869z"/>
	<path class="st1" d="M37.832,31.886c-2.213,3.264-4.442,3.913-7.777,2.379c-0.679-0.313-1.347-0.651-2.021-0.975
		c-3.98-1.909-4.769-3.283-4.419-7.88c1.554,0.542,3.295,0.68,3.231,2.984c-0.01,0.369,0.354,0.915,0.696,1.099
		c1.568,0.842,3.17,1.63,4.806,2.329c0.415,0.177,1.241,0.155,1.468-0.116C35.229,30.021,36.41,31.209,37.832,31.886z"/>
	<path class="st0" d="M41.025,17.596c-0.021-3.857,0.61-7.581,2.428-11.024c0.838-1.587,1.784-3.353,3.845-3.333
		c1.966,0.019,2.984,1.699,3.711,3.261c3.457,7.436,3.458,14.931-0.005,22.366c-0.728,1.564-1.75,3.223-3.717,3.264
		c-1.998,0.042-2.893-1.68-3.756-3.186C41.858,26.025,41.005,22.048,41.025,17.596z M42.985,13.326
		c-0.784,2.609-0.864,5.27-0.138,7.92c0.108,0.394,0.853,0.912,1.258,0.876c2.24-0.2,3.907-2.609,3.622-5.05
		C47.451,14.711,45.45,13.093,42.985,13.326z"/>
	<path class="st2" d="M39.645,6.869c-0.409,1.513-0.659,2.749-1.099,3.914c-0.189,0.499-0.702,1.068-1.193,1.233
		c-4.639,1.56-9.296,3.067-13.975,4.502c-0.512,0.157-1.193-0.238-1.796-0.377c0.329-0.509,0.54-1.271,1.006-1.488
		C28.167,12.049,33.785,9.527,39.645,6.869z"/>
	<path class="st1" d="M42.985,13.326c2.465-0.234,4.466,1.385,4.742,3.746c0.285,2.441-1.382,4.851-3.622,5.05
		c-0.406,0.036-1.15-0.483-1.258-0.876C42.121,18.596,42.201,15.936,42.985,13.326z"/>
	<g>
		<path class="st1" d="M0.081,42.223l5.003,0.038c2.325,0.018,3.581,1.596,3.566,3.469c-0.014,1.856-1.31,3.432-3.619,3.414
			l-2.727-0.021l-0.029,3.793L0,52.9L0.081,42.223z M4.765,44.26l-2.422-0.019l-0.022,2.881l2.422,0.019
			c0.898,0.007,1.576-0.548,1.583-1.429C6.333,44.816,5.663,44.267,4.765,44.26z"/>
		<path class="st1" d="M10.02,45.244l2.037,0.015l-0.008,1.056c0.551-0.684,1.517-1.221,2.479-1.213l-0.015,1.985
			c-0.144-0.034-0.336-0.067-0.561-0.068c-0.674-0.005-1.574,0.373-1.915,0.866l-0.039,5.106l-2.037-0.015L10.02,45.244z"/>
		<path class="st1" d="M15.268,49.142c0.017-2.193,1.57-4.038,4.12-4.019c2.566,0.02,4.092,1.888,4.075,4.081
			c-0.017,2.209-1.571,4.054-4.137,4.034C16.776,53.219,15.25,51.351,15.268,49.142z M21.346,49.188
			c0.009-1.201-0.705-2.246-1.972-2.256c-1.267-0.01-1.98,1.025-1.989,2.226c-0.009,1.216,0.688,2.262,1.955,2.272
			C20.607,51.439,21.336,50.404,21.346,49.188z"/>
		<path class="st1" d="M34.585,48.28c0.005-0.72-0.312-1.235-1.146-1.241c-0.722-0.005-1.318,0.47-1.611,0.884l-0.04,5.218
			l-2.053-0.016l0.037-4.882c0.005-0.72-0.311-1.235-1.145-1.241c-0.706-0.005-1.303,0.47-1.611,0.9l-0.04,5.202l-2.037-0.016
			L25,45.358l2.037,0.016l-0.007,1.008c0.324-0.462,1.356-1.19,2.542-1.182c1.139,0.009,1.856,0.542,2.139,1.425
			c0.454-0.701,1.485-1.398,2.672-1.389c1.427,0.011,2.272,0.77,2.26,2.354l-0.042,5.586l-2.053-0.016L34.585,48.28z"/>
		<path class="st1" d="M38.141,49.315c0.017-2.193,1.57-4.038,4.12-4.019c2.566,0.02,4.091,1.888,4.075,4.081
			c-0.017,2.209-1.57,4.054-4.136,4.034C39.649,53.392,38.124,51.524,38.141,49.315z M44.219,49.361
			c0.009-1.201-0.705-2.246-1.972-2.256c-1.267-0.009-1.98,1.025-1.989,2.226c-0.009,1.216,0.688,2.262,1.955,2.271
			C43.48,51.613,44.209,50.578,44.219,49.361z"/>
		<path class="st1" d="M48.23,51.345l0.031-4.034l-1.283-0.01l0.013-1.776l1.283,0.01l0.016-2.113l2.053,0.015l-0.016,2.113
			l1.572,0.012l-0.013,1.776l-1.572-0.012l-0.026,3.49c-0.004,0.48,0.25,0.85,0.699,0.854c0.305,0.002,0.595-0.107,0.708-0.219
			l0.421,1.54c-0.307,0.27-0.854,0.49-1.704,0.483C48.984,53.463,48.22,52.721,48.23,51.345z"/>
		<path class="st1" d="M53.102,43.522c0.005-0.672,0.571-1.196,1.228-1.191c0.674,0.005,1.215,0.538,1.209,1.21
			c-0.005,0.672-0.554,1.212-1.228,1.207C53.654,44.743,53.097,44.194,53.102,43.522z M53.295,45.573l2.037,0.015l-0.059,7.731
			l-2.037-0.015L53.295,45.573z"/>
		<path class="st1" d="M56.827,49.457c0.017-2.193,1.57-4.038,4.12-4.019c2.565,0.02,4.091,1.888,4.075,4.081
			c-0.017,2.209-1.571,4.054-4.136,4.034C58.335,53.534,56.81,51.666,56.827,49.457z M62.905,49.503
			c0.009-1.201-0.705-2.246-1.972-2.256c-1.267-0.009-1.98,1.025-1.989,2.226c-0.009,1.216,0.688,2.262,1.955,2.271
			C62.166,51.754,62.896,50.719,62.905,49.503z"/>
		<path class="st1" d="M71.765,48.77c0.008-1.072-0.55-1.445-1.417-1.452c-0.802-0.006-1.431,0.437-1.771,0.899l-0.04,5.202
			l-2.037-0.016l0.059-7.731l2.037,0.016l-0.007,1.008c0.501-0.588,1.452-1.19,2.719-1.18c1.7,0.013,2.511,0.979,2.499,2.484
			l-0.042,5.458l-2.037-0.015L71.765,48.77z"/>
	</g>
</g>
</svg>