<!-- Generator: Adobe Illustrator 19.1.0, SVG Export Plug-In  -->
<svg version="1.1"
	 xmlns="http://www.w3.org/2000/svg" xmlns:xlink="http://www.w3.org/1999/xlink" xmlns:a="http://ns.adobe.com/AdobeSVGViewerExtensions/3.0/"
	 x="0px" y="0px" width="35.735px" height="35.735px" viewBox="0 0 35.735 35.735"
	 style="enable-background:new 0 0 35.735 35.735;" xml:space="preserve">
<style type="text/css">
	.st0{fill:#29ABE2;}
</style>
<defs>
</defs>
<g>
	<path class="st0" d="M17.868,0C7.998,0,0,8,0,17.868c0,9.869,7.998,17.867,17.868,17.867c9.869,0,17.868-7.998,17.868-17.867
		C35.735,8,27.736,0,17.868,0L17.868,0z M19.872,31.207c0,0.32-0.26,0.581-0.58,0.581h-2.854c-0.321,0-0.58-0.26-0.58-0.581v-2.564
		c0-0.321,0.26-0.581,0.58-0.581h2.854c0.32,0,0.58,0.26,0.58,0.581V31.207z M22.994,18.883c-1.695,1.449-3.031,2.593-3.095,6.327
		c-0.006,0.317-0.264,0.569-0.581,0.569h-2.903c-0.156,0-0.304-0.062-0.414-0.172c-0.108-0.112-0.168-0.261-0.166-0.417
		c0.086-5.603,2.646-7.794,4.516-9.393c1.431-1.225,2.012-1.783,2.012-3.287c0-2.482-2.017-4.499-4.497-4.499
		c-2.385,0-4.356,1.863-4.492,4.241c-0.016,0.307-0.271,0.547-0.578,0.547H9.889c-0.157,0-0.307-0.064-0.417-0.178
		c-0.11-0.113-0.167-0.265-0.163-0.423c0.167-4.627,3.926-8.251,8.557-8.251c4.72,0,8.56,3.842,8.56,8.56
		C26.426,15.946,24.523,17.575,22.994,18.883L22.994,18.883z M22.994,18.883"/>
</g>
</svg>