<!-- Generator: Adobe Illustrator 19.1.0, SVG Export Plug-In  -->
<svg version="1.1"
	 xmlns="http://www.w3.org/2000/svg" xmlns:xlink="http://www.w3.org/1999/xlink" xmlns:a="http://ns.adobe.com/AdobeSVGViewerExtensions/3.0/"
	 x="0px" y="0px" width="118.667px" height="118.667px" viewBox="0 0 118.667 118.667"
	 style="enable-background:new 0 0 118.667 118.667;" xml:space="preserve">
<style type="text/css">
	.st0{fill:#999999;}
	.st1{fill:#FFFFFF;}
	.st2{fill-rule:evenodd;clip-rule:evenodd;fill:#999999;}
</style>
<defs>
</defs>
<path class="st0" d="M37.06,99.285c2.116-4.756,3.007-9.228,1.825-13.795c-0.314-1.212-1.216-2.625-2.388-3.333
	C24.019,74.62,17.727,64.585,20.21,51.852C22.884,38.14,33.493,29.759,49.357,26.09c21.348-4.937,44.004,5.191,49.976,22.052
	c5.539,15.636-5.138,32.017-24.896,37.78c-3.859,1.126-8.1,1.336-12.142,2.058c-0.909,0.163-2.078,0.517-2.52,1.1
	C54.603,95.886,46.625,98.297,37.06,99.285z"/>
<g>
	<path class="st1" d="M34.355,60.802c1.302,1.672,3.325,3.07,5.874,3.07c2.162,0,3.215-1.229,3.215-2.524
		c0-1.672-1.718-2.149-3.741-2.764c-3.021-0.854-6.899-1.877-6.899-7.062c0-3.787,2.66-6.927,7.01-6.927
		c2.938,0,5.376,1.092,7.205,3.173l-2.189,3.549c-1.497-1.706-3.492-2.49-5.375-2.49c-1.69,0-2.633,0.921-2.633,2.285
		c0,1.468,1.69,1.945,3.686,2.525c3.048,0.887,6.928,2.013,6.928,7.165c0,4.162-2.411,7.301-7.399,7.301
		c-3.547,0-6.096-1.467-7.814-3.616L34.355,60.802z"/>
	<path class="st1" d="M66.164,51.76l-5.209,15.934h-1.718L54.027,51.76v15.934h-3.935V44.937h5.514l4.489,13.749l4.489-13.749h5.542
		v22.757h-3.963V51.76z"/>
	<path class="st1" d="M74.669,60.802c1.302,1.672,3.325,3.07,5.874,3.07c2.161,0,3.215-1.229,3.215-2.524
		c0-1.672-1.719-2.149-3.741-2.764c-3.021-0.854-6.899-1.877-6.899-7.062c0-3.787,2.66-6.927,7.01-6.927
		c2.938,0,5.376,1.092,7.205,3.173l-2.189,3.549c-1.496-1.706-3.491-2.49-5.375-2.49c-1.69,0-2.633,0.921-2.633,2.285
		c0,1.468,1.69,1.945,3.686,2.525c3.048,0.887,6.928,2.013,6.928,7.165c0,4.162-2.411,7.301-7.399,7.301
		c-3.547,0-6.096-1.467-7.813-3.616L74.669,60.802z"/>
</g>
<path class="st2" d="M118.667,59.334C118.667,26.569,92.091,0,59.333,0C26.569,0,0,26.569,0,59.334
	c0,32.758,26.569,59.334,59.333,59.334C92.091,118.667,118.667,92.092,118.667,59.334L118.667,59.334z M5.4,59.334
	C5.4,29.549,29.549,5.4,59.333,5.4s53.934,24.149,53.934,53.934s-24.149,53.933-53.934,53.933S5.4,89.119,5.4,59.334L5.4,59.334z
	 M5.4,59.334"/>
</svg>