<!-- Generator: Adobe Illustrator 19.1.0, SVG Export Plug-In  -->
<svg version="1.1"
	 xmlns="http://www.w3.org/2000/svg" xmlns:xlink="http://www.w3.org/1999/xlink" xmlns:a="http://ns.adobe.com/AdobeSVGViewerExtensions/3.0/"
	 x="0px" y="0px" width="118.667px" height="118.667px" viewBox="0 0 118.667 118.667"
	 style="enable-background:new 0 0 118.667 118.667;" xml:space="preserve">
<style type="text/css">
	.st0{fill-rule:evenodd;clip-rule:evenodd;fill:#999999;}
	.st1{fill:#999999;}
</style>
<defs>
</defs>
<g>
	<g>
		<path class="st0" d="M84.77,47.536c0-0.607-0.027-1.187-0.054-1.793c2.582-1.894,4.793-4.295,6.56-7.032
			c-2.346,1.052-4.874,1.766-7.53,2.056c2.71-1.658,4.794-4.322,5.764-7.504c-2.528,1.524-5.346,2.629-8.319,3.182
			c-2.393-2.71-5.791-4.45-9.56-4.503c-7.241-0.101-13.113,6.007-13.113,13.672c0,1.078,0.101,2.13,0.337,3.155
			c-10.901-0.708-20.562-6.371-27.014-14.926c-1.133,2.049-1.793,4.45-1.793,7.005c0,4.867,2.319,9.189,5.845,11.717
			c-2.158-0.108-4.187-0.742-5.953-1.82v0.189c0,6.789,4.531,12.452,10.537,13.8c-1.106,0.31-2.265,0.472-3.452,0.472
			c-0.87-0.027-1.685-0.108-2.474-0.29c1.658,5.582,6.506,9.641,12.243,9.769c-4.503,3.715-10.133,5.953-16.274,5.926
			c-1.052,0-2.103-0.081-3.135-0.209c5.798,4.005,12.695,6.317,20.097,6.317C71.577,86.718,84.77,65.731,84.77,47.536L84.77,47.536z
			 M84.77,47.536"/>
		<path class="st0" d="M118.667,59.334C118.667,26.569,92.091,0,59.333,0C26.569,0,0,26.569,0,59.334
			c0,32.758,26.569,59.334,59.333,59.334C92.091,118.667,118.667,92.092,118.667,59.334L118.667,59.334z M5.4,59.334
			C5.4,29.549,29.549,5.4,59.333,5.4s53.934,24.149,53.934,53.934s-24.149,53.933-53.934,53.933S5.4,89.119,5.4,59.334L5.4,59.334z
			 M5.4,59.334"/>
	</g>
	<path class="st0" d="M118.667,59.33C118.667,26.567,92.091,0,59.333,0C26.569,0,0,26.567,0,59.33
		c0,32.756,26.569,59.33,59.333,59.33C92.091,118.659,118.667,92.085,118.667,59.33L118.667,59.33z M5.4,59.33
		C5.4,29.547,29.549,5.4,59.333,5.4s53.934,24.147,53.934,53.93s-24.149,53.93-53.934,53.93S5.4,89.113,5.4,59.33L5.4,59.33z
		 M5.4,59.33"/>
	<path class="st1" d="M47.523,54.07"/>
</g>
</svg>