<svg id="Layer_1" data-name="Layer 1" xmlns="http://www.w3.org/2000/svg" viewBox="0 0 168.26 168.26"><title>b</title><path d="M404.19,582.84a84.13,84.13,0,1,1-84.14-84.12,84.09,84.09,0,0,1,84.14,84.12h0Z" transform="translate(-235.93 -498.72)"/><path id="_Compound_Path_" data-name="&lt;Compound Path&gt;" d="M300.58,564.59v-6.18h8.48v6.18h-8.48Zm8.48,4.23v27.32h-8.48V568.82h8.48Z" transform="translate(-235.93 -498.72)" fill="#29abe2"/><path id="_Path_" data-name="&lt;Path&gt;" d="M320.8,568.82v3.8H321a8.52,8.52,0,0,1,3.64-3.46,10.38,10.38,0,0,1,4.57-1.08,12.36,12.36,0,0,1,4.86.82,7.21,7.21,0,0,1,3,2.27,8.86,8.86,0,0,1,1.53,3.54,22.41,22.41,0,0,1,.44,4.63v16.8h-7.37V580.7a9.71,9.71,0,0,0-1-5,4,4,0,0,0-3.69-1.66,5.07,5.07,0,0,0-4.36,1.82q-1.35,1.82-1.35,6v14.32h-7.37V568.82h7Z" transform="translate(-235.93 -498.72)" fill="#29abe2"/><path d="M350.28,558.61a15.35,15.35,0,0,1,5.6-1,18.77,18.77,0,0,1,6.67,1,13.15,13.15,0,0,1,4.31,2.55,9.87,9.87,0,0,1,1.89,2.35V552.75H343.34v12.47a12.22,12.22,0,0,1,2.66-3.89A12.5,12.5,0,0,1,350.28,558.61Z" transform="translate(-235.93 -498.72)" fill="#a2cd4d"/><path d="M365.14,576.73q-1.27.82-2.39,1.63a10.83,10.83,0,0,0-2,1.87,5.16,5.16,0,0,0-1.1,2.63v2h-7.6v-2.37a10.25,10.25,0,0,1,.93-3.79,10.8,10.8,0,0,1,1.77-2.61,13.74,13.74,0,0,1,2.14-1.87q1.13-.79,2.08-1.58a7.2,7.2,0,0,0,1.55-1.74,4.09,4.09,0,0,0,.54-2.37,4.63,4.63,0,0,0-1.27-3.58,5,5,0,0,0-3.52-1.16,5.77,5.77,0,0,0-2.62.55,5.14,5.14,0,0,0-1.8,1.47,6.22,6.22,0,0,0-1,2.16,10.07,10.07,0,0,0-.34,2.66h-7.14v22.9q0,7.35-5.18,10.79t-18.77,3.45A49.43,49.43,0,0,1,307,606.54a20.75,20.75,0,0,1-7.2-3.22,9.23,9.23,0,0,1-3.4-4.55,17.3,17.3,0,0,1-.81-5.24V552.75H270.19v40.79q0,13.41,12.87,19.84t36.33,6.43q23.14,0,36.25-6.48t13.11-19.8V572.89a9.55,9.55,0,0,1-1.3,1.86A11.24,11.24,0,0,1,365.14,576.73Zm-5,19.4h-8.84V588h8.84v8.11Z" transform="translate(-235.93 -498.72)" fill="#a2cd4d"/></svg>