<?xml version="1.0" encoding="UTF-8" standalone="no"?>
<!DOCTYPE svg PUBLIC "-//W3C//DTD SVG 1.1//EN"
 "http://www.w3.org/Graphics/SVG/1.1/DTD/svg11.dtd">
<!-- Generated by graphviz version 2.36.0 (20140111.2315)
 -->
<!-- Title: controllers_diagram Pages: 1 -->
<svg width="1062pt" height="1074pt"
 viewBox="0.00 0.00 1062.00 1074.00" xmlns="http://www.w3.org/2000/svg" xmlns:xlink="http://www.w3.org/1999/xlink">
<g id="graph0" class="graph" transform="scale(1 1) rotate(0) translate(4 1070)">
<title>controllers_diagram</title>
<polygon fill="none" stroke="none" points="-4,4 -4,-1070 1058,-1070 1058,4 -4,4"/>
<!-- _diagram_info -->
<g id="node1" class="node"><title>_diagram_info</title>
<text text-anchor="start" x="848" y="-861.6" font-family="Times,serif" font-size="13.00">Controllers diagram</text>
<text text-anchor="start" x="848" y="-847.6" font-family="Times,serif" font-size="13.00">Date: Oct 01 2015 &#45; 11:27</text>
<text text-anchor="start" x="848" y="-833.6" font-family="Times,serif" font-size="13.00">Migration version: 20150724081808</text>
<text text-anchor="start" x="848" y="-819.6" font-family="Times,serif" font-size="13.00">Generated by RailRoady 1.3.1</text>
<text text-anchor="start" x="848" y="-805.6" font-family="Times,serif" font-size="13.00">http://railroady.prestonlee.com</text>
</g>
<!-- ActivitiesController -->
<g id="node2" class="node"><title>ActivitiesController</title>
<path fill="none" stroke="black" d="M96,-777.5C96,-777.5 206,-777.5 206,-777.5 212,-777.5 218,-783.5 218,-789.5 218,-789.5 218,-1008.5 218,-1008.5 218,-1014.5 212,-1020.5 206,-1020.5 206,-1020.5 96,-1020.5 96,-1020.5 90,-1020.5 84,-1014.5 84,-1008.5 84,-1008.5 84,-789.5 84,-789.5 84,-783.5 90,-777.5 96,-777.5"/>
<text text-anchor="middle" x="151" y="-1005.3" font-family="Times,serif" font-size="14.00">ActivitiesController</text>
<polyline fill="none" stroke="black" points="84,-997.5 218,-997.5 "/>
<text text-anchor="start" x="92" y="-982.3" font-family="Times,serif" font-size="14.00">book</text>
<text text-anchor="start" x="92" y="-967.3" font-family="Times,serif" font-size="14.00">booked</text>
<text text-anchor="start" x="92" y="-952.3" font-family="Times,serif" font-size="14.00">cus_month_calendars</text>
<text text-anchor="start" x="92" y="-937.3" font-family="Times,serif" font-size="14.00">data_day</text>
<text text-anchor="start" x="92" y="-922.3" font-family="Times,serif" font-size="14.00">index</text>
<text text-anchor="start" x="92" y="-907.3" font-family="Times,serif" font-size="14.00">show</text>
<text text-anchor="start" x="92" y="-892.3" font-family="Times,serif" font-size="14.00">view_day</text>
<polyline fill="none" stroke="black" points="84,-884.5 218,-884.5 "/>
<polyline fill="none" stroke="black" points="84,-860.5 218,-860.5 "/>
<text text-anchor="start" x="92" y="-845.3" font-family="Times,serif" font-size="14.00">_layout</text>
<text text-anchor="start" x="92" y="-830.3" font-family="Times,serif" font-size="14.00">load_activities</text>
<text text-anchor="start" x="92" y="-815.3" font-family="Times,serif" font-size="14.00">load_book</text>
<text text-anchor="start" x="92" y="-800.3" font-family="Times,serif" font-size="14.00">params_booking</text>
<text text-anchor="start" x="92" y="-785.3" font-family="Times,serif" font-size="14.00">params_to_date</text>
</g>
<!-- CategoriesController -->
<g id="node3" class="node"><title>CategoriesController</title>
<path fill="none" stroke="black" d="M516,-105.5C516,-105.5 645,-105.5 645,-105.5 651,-105.5 657,-111.5 657,-117.5 657,-117.5 657,-306.5 657,-306.5 657,-312.5 651,-318.5 645,-318.5 645,-318.5 516,-318.5 516,-318.5 510,-318.5 504,-312.5 504,-306.5 504,-306.5 504,-117.5 504,-117.5 504,-111.5 510,-105.5 516,-105.5"/>
<text text-anchor="middle" x="580.5" y="-303.3" font-family="Times,serif" font-size="14.00">CategoriesController</text>
<polyline fill="none" stroke="black" points="504,-295.5 657,-295.5 "/>
<text text-anchor="start" x="512" y="-280.3" font-family="Times,serif" font-size="14.00">check_categories_unique</text>
<text text-anchor="start" x="512" y="-265.3" font-family="Times,serif" font-size="14.00">create</text>
<text text-anchor="start" x="512" y="-250.3" font-family="Times,serif" font-size="14.00">delete</text>
<text text-anchor="start" x="512" y="-235.3" font-family="Times,serif" font-size="14.00">destroy</text>
<text text-anchor="start" x="512" y="-220.3" font-family="Times,serif" font-size="14.00">edit</text>
<text text-anchor="start" x="512" y="-205.3" font-family="Times,serif" font-size="14.00">index</text>
<text text-anchor="start" x="512" y="-190.3" font-family="Times,serif" font-size="14.00">update</text>
<polyline fill="none" stroke="black" points="504,-182.5 657,-182.5 "/>
<polyline fill="none" stroke="black" points="504,-158.5 657,-158.5 "/>
<text text-anchor="start" x="512" y="-143.3" font-family="Times,serif" font-size="14.00">_layout</text>
<text text-anchor="start" x="512" y="-128.3" font-family="Times,serif" font-size="14.00">load_category</text>
<text text-anchor="start" x="512" y="-113.3" font-family="Times,serif" font-size="14.00">params_category</text>
</g>
<!-- SchedulesController -->
<g id="node4" class="node"><title>SchedulesController</title>
<path fill="none" stroke="black" d="M117,-399.5C117,-399.5 231,-399.5 231,-399.5 237,-399.5 243,-405.5 243,-411.5 243,-411.5 243,-660.5 243,-660.5 243,-666.5 237,-672.5 231,-672.5 231,-672.5 117,-672.5 117,-672.5 111,-672.5 105,-666.5 105,-660.5 105,-660.5 105,-411.5 105,-411.5 105,-405.5 111,-399.5 117,-399.5"/>
<text text-anchor="middle" x="174" y="-657.3" font-family="Times,serif" font-size="14.00">SchedulesController</text>
<polyline fill="none" stroke="black" points="105,-649.5 243,-649.5 "/>
<text text-anchor="start" x="113" y="-634.3" font-family="Times,serif" font-size="14.00">apply_schedule_to_all</text>
<text text-anchor="start" x="113" y="-619.3" font-family="Times,serif" font-size="14.00">check_conflict</text>
<text text-anchor="start" x="113" y="-604.3" font-family="Times,serif" font-size="14.00">create</text>
<text text-anchor="start" x="113" y="-589.3" font-family="Times,serif" font-size="14.00">destroy</text>
<text text-anchor="start" x="113" y="-574.3" font-family="Times,serif" font-size="14.00">edit</text>
<text text-anchor="start" x="113" y="-559.3" font-family="Times,serif" font-size="14.00">index</text>
<text text-anchor="start" x="113" y="-544.3" font-family="Times,serif" font-size="14.00">new</text>
<text text-anchor="start" x="113" y="-529.3" font-family="Times,serif" font-size="14.00">show</text>
<text text-anchor="start" x="113" y="-514.3" font-family="Times,serif" font-size="14.00">update</text>
<text text-anchor="start" x="113" y="-499.3" font-family="Times,serif" font-size="14.00">update_status</text>
<polyline fill="none" stroke="black" points="105,-491.5 243,-491.5 "/>
<polyline fill="none" stroke="black" points="105,-467.5 243,-467.5 "/>
<text text-anchor="start" x="113" y="-452.3" font-family="Times,serif" font-size="14.00">_layout</text>
<text text-anchor="start" x="113" y="-437.3" font-family="Times,serif" font-size="14.00">format_date</text>
<text text-anchor="start" x="113" y="-422.3" font-family="Times,serif" font-size="14.00">load_schedule</text>
<text text-anchor="start" x="113" y="-407.3" font-family="Times,serif" font-size="14.00">schedule_params</text>
</g>
<!-- HomeController -->
<g id="node5" class="node"><title>HomeController</title>
<path fill="none" stroke="black" d="M264,-882.5C264,-882.5 346,-882.5 346,-882.5 352,-882.5 358,-888.5 358,-894.5 358,-894.5 358,-963.5 358,-963.5 358,-969.5 352,-975.5 346,-975.5 346,-975.5 264,-975.5 264,-975.5 258,-975.5 252,-969.5 252,-963.5 252,-963.5 252,-894.5 252,-894.5 252,-888.5 258,-882.5 264,-882.5"/>
<text text-anchor="middle" x="305" y="-960.3" font-family="Times,serif" font-size="14.00">HomeController</text>
<polyline fill="none" stroke="black" points="252,-952.5 358,-952.5 "/>
<text text-anchor="start" x="260" y="-937.3" font-family="Times,serif" font-size="14.00">index</text>
<polyline fill="none" stroke="black" points="252,-929.5 358,-929.5 "/>
<polyline fill="none" stroke="black" points="252,-905.5 358,-905.5 "/>
<text text-anchor="start" x="260" y="-890.3" font-family="Times,serif" font-size="14.00">_layout</text>
</g>
<!-- PromotionsController -->
<g id="node6" class="node"><title>PromotionsController</title>
<path fill="none" stroke="black" d="M285,-294.5C285,-294.5 444,-294.5 444,-294.5 450,-294.5 456,-300.5 456,-306.5 456,-306.5 456,-660.5 456,-660.5 456,-666.5 450,-672.5 444,-672.5 444,-672.5 285,-672.5 285,-672.5 279,-672.5 273,-666.5 273,-660.5 273,-660.5 273,-306.5 273,-306.5 273,-300.5 279,-294.5 285,-294.5"/>
<text text-anchor="middle" x="364.5" y="-657.3" font-family="Times,serif" font-size="14.00">PromotionsController</text>
<polyline fill="none" stroke="black" points="273,-649.5 456,-649.5 "/>
<text text-anchor="start" x="281" y="-634.3" font-family="Times,serif" font-size="14.00">_callback_before_16</text>
<text text-anchor="start" x="281" y="-619.3" font-family="Times,serif" font-size="14.00">create</text>
<text text-anchor="start" x="281" y="-604.3" font-family="Times,serif" font-size="14.00">customer_contacts</text>
<text text-anchor="start" x="281" y="-589.3" font-family="Times,serif" font-size="14.00">destroy</text>
<text text-anchor="start" x="281" y="-574.3" font-family="Times,serif" font-size="14.00">edit</text>
<text text-anchor="start" x="281" y="-559.3" font-family="Times,serif" font-size="14.00">get_cus_email</text>
<text text-anchor="start" x="281" y="-544.3" font-family="Times,serif" font-size="14.00">get_delete</text>
<text text-anchor="start" x="281" y="-529.3" font-family="Times,serif" font-size="14.00">index</text>
<text text-anchor="start" x="281" y="-514.3" font-family="Times,serif" font-size="14.00">new</text>
<text text-anchor="start" x="281" y="-499.3" font-family="Times,serif" font-size="14.00">set_cancel_reactive_status</text>
<text text-anchor="start" x="281" y="-484.3" font-family="Times,serif" font-size="14.00">share</text>
<text text-anchor="start" x="281" y="-469.3" font-family="Times,serif" font-size="14.00">show</text>
<text text-anchor="start" x="281" y="-454.3" font-family="Times,serif" font-size="14.00">update</text>
<text text-anchor="start" x="281" y="-439.3" font-family="Times,serif" font-size="14.00">update_image</text>
<text text-anchor="start" x="281" y="-424.3" font-family="Times,serif" font-size="14.00">upload_image</text>
<polyline fill="none" stroke="black" points="273,-416.5 456,-416.5 "/>
<polyline fill="none" stroke="black" points="273,-392.5 456,-392.5 "/>
<text text-anchor="start" x="281" y="-377.3" font-family="Times,serif" font-size="14.00">_layout</text>
<text text-anchor="start" x="281" y="-362.3" font-family="Times,serif" font-size="14.00">image_params</text>
<text text-anchor="start" x="281" y="-347.3" font-family="Times,serif" font-size="14.00">image_promotions_params</text>
<text text-anchor="start" x="281" y="-332.3" font-family="Times,serif" font-size="14.00">load_current_user_promotions</text>
<text text-anchor="start" x="281" y="-317.3" font-family="Times,serif" font-size="14.00">promotion_new_params</text>
<text text-anchor="start" x="281" y="-302.3" font-family="Times,serif" font-size="14.00">set_image_default</text>
</g>
<!-- ConfirmationsController -->
<g id="node7" class="node"><title>ConfirmationsController</title>
<path fill="none" stroke="black" d="M264,-714.5C264,-714.5 540,-714.5 540,-714.5 546,-714.5 552,-720.5 552,-726.5 552,-726.5 552,-824.5 552,-824.5 552,-830.5 546,-836.5 540,-836.5 540,-836.5 264,-836.5 264,-836.5 258,-836.5 252,-830.5 252,-824.5 252,-824.5 252,-726.5 252,-726.5 252,-720.5 258,-714.5 264,-714.5"/>
<text text-anchor="middle" x="402" y="-821.3" font-family="Times,serif" font-size="14.00">ConfirmationsController</text>
<polyline fill="none" stroke="black" points="252,-813.5 552,-813.5 "/>
<text text-anchor="start" x="260" y="-798.3" font-family="Times,serif" font-size="14.00">show</text>
<polyline fill="none" stroke="black" points="252,-790.5 552,-790.5 "/>
<text text-anchor="start" x="260" y="-775.3" font-family="Times,serif" font-size="14.00">after_confirmation_path_for</text>
<text text-anchor="start" x="260" y="-760.3" font-family="Times,serif" font-size="14.00">after_confirmation_to_set_profile_path_for</text>
<text text-anchor="start" x="260" y="-745.3" font-family="Times,serif" font-size="14.00">after_resending_confirmation_instructions_path_for</text>
<polyline fill="none" stroke="black" points="252,-737.5 552,-737.5 "/>
<text text-anchor="start" x="260" y="-722.3" font-family="Times,serif" font-size="14.00">_layout</text>
</g>
<!-- HistoryVMoneysController -->
<g id="node8" class="node"><title>HistoryVMoneysController</title>
<path fill="none" stroke="black" d="M705,-0.5C705,-0.5 848,-0.5 848,-0.5 854,-0.5 860,-6.5 860,-12.5 860,-12.5 860,-81.5 860,-81.5 860,-87.5 854,-93.5 848,-93.5 848,-93.5 705,-93.5 705,-93.5 699,-93.5 693,-87.5 693,-81.5 693,-81.5 693,-12.5 693,-12.5 693,-6.5 699,-0.5 705,-0.5"/>
<text text-anchor="middle" x="776.5" y="-78.3" font-family="Times,serif" font-size="14.00">HistoryVMoneysController</text>
<polyline fill="none" stroke="black" points="693,-70.5 860,-70.5 "/>
<text text-anchor="start" x="701" y="-55.3" font-family="Times,serif" font-size="14.00">index</text>
<polyline fill="none" stroke="black" points="693,-47.5 860,-47.5 "/>
<polyline fill="none" stroke="black" points="693,-23.5 860,-23.5 "/>
<text text-anchor="start" x="701" y="-8.3" font-family="Times,serif" font-size="14.00">_layout</text>
</g>
<!-- EmployeesController -->
<g id="node9" class="node"><title>EmployeesController</title>
<path fill="none" stroke="black" d="M705,-126.5C705,-126.5 825,-126.5 825,-126.5 831,-126.5 837,-132.5 837,-138.5 837,-138.5 837,-312.5 837,-312.5 837,-318.5 831,-324.5 825,-324.5 825,-324.5 705,-324.5 705,-324.5 699,-324.5 693,-318.5 693,-312.5 693,-312.5 693,-138.5 693,-138.5 693,-132.5 699,-126.5 705,-126.5"/>
<text text-anchor="middle" x="765" y="-309.3" font-family="Times,serif" font-size="14.00">EmployeesController</text>
<polyline fill="none" stroke="black" points="693,-301.5 837,-301.5 "/>
<text text-anchor="start" x="701" y="-286.3" font-family="Times,serif" font-size="14.00">_callback_before_17</text>
<text text-anchor="start" x="701" y="-271.3" font-family="Times,serif" font-size="14.00">business</text>
<text text-anchor="start" x="701" y="-256.3" font-family="Times,serif" font-size="14.00">create</text>
<text text-anchor="start" x="701" y="-241.3" font-family="Times,serif" font-size="14.00">destroy</text>
<text text-anchor="start" x="701" y="-226.3" font-family="Times,serif" font-size="14.00">get_created_employees</text>
<text text-anchor="start" x="701" y="-211.3" font-family="Times,serif" font-size="14.00">new</text>
<text text-anchor="start" x="701" y="-196.3" font-family="Times,serif" font-size="14.00">update_name</text>
<polyline fill="none" stroke="black" points="693,-188.5 837,-188.5 "/>
<polyline fill="none" stroke="black" points="693,-164.5 837,-164.5 "/>
<text text-anchor="start" x="701" y="-149.3" font-family="Times,serif" font-size="14.00">_layout</text>
<text text-anchor="start" x="701" y="-134.3" font-family="Times,serif" font-size="14.00">employee_params</text>
</g>
<!-- ContactController -->
<g id="node10" class="node"><title>ContactController</title>
<path fill="none" stroke="black" d="M369,-168.5C369,-168.5 459,-168.5 459,-168.5 465,-168.5 471,-174.5 471,-180.5 471,-180.5 471,-249.5 471,-249.5 471,-255.5 465,-261.5 459,-261.5 459,-261.5 369,-261.5 369,-261.5 363,-261.5 357,-255.5 357,-249.5 357,-249.5 357,-180.5 357,-180.5 357,-174.5 363,-168.5 369,-168.5"/>
<text text-anchor="middle" x="414" y="-246.3" font-family="Times,serif" font-size="14.00">ContactController</text>
<polyline fill="none" stroke="black" points="357,-238.5 471,-238.5 "/>
<text text-anchor="start" x="365" y="-223.3" font-family="Times,serif" font-size="14.00">send_contact</text>
<polyline fill="none" stroke="black" points="357,-215.5 471,-215.5 "/>
<polyline fill="none" stroke="black" points="357,-191.5 471,-191.5 "/>
<text text-anchor="start" x="365" y="-176.3" font-family="Times,serif" font-size="14.00">_layout</text>
</g>
<!-- RegistrationsController -->
<g id="node11" class="node"><title>RegistrationsController</title>
<path fill="none" stroke="black" d="M600,-693.5C600,-693.5 782,-693.5 782,-693.5 788,-693.5 794,-699.5 794,-705.5 794,-705.5 794,-969.5 794,-969.5 794,-975.5 788,-981.5 782,-981.5 782,-981.5 600,-981.5 600,-981.5 594,-981.5 588,-975.5 588,-969.5 588,-969.5 588,-705.5 588,-705.5 588,-699.5 594,-693.5 600,-693.5"/>
<text text-anchor="middle" x="691" y="-966.3" font-family="Times,serif" font-size="14.00">RegistrationsController</text>
<polyline fill="none" stroke="black" points="588,-958.5 794,-958.5 "/>
<text text-anchor="start" x="596" y="-943.3" font-family="Times,serif" font-size="14.00">after_inactive_sign_up_path_for</text>
<text text-anchor="start" x="596" y="-928.3" font-family="Times,serif" font-size="14.00">billing_card</text>
<text text-anchor="start" x="596" y="-913.3" font-family="Times,serif" font-size="14.00">card</text>
<text text-anchor="start" x="596" y="-898.3" font-family="Times,serif" font-size="14.00">check_user_unique</text>
<text text-anchor="start" x="596" y="-883.3" font-family="Times,serif" font-size="14.00">comfirmation_success</text>
<text text-anchor="start" x="596" y="-868.3" font-family="Times,serif" font-size="14.00">create_billing_card</text>
<text text-anchor="start" x="596" y="-853.3" font-family="Times,serif" font-size="14.00">edit</text>
<text text-anchor="start" x="596" y="-838.3" font-family="Times,serif" font-size="14.00">edit_password</text>
<text text-anchor="start" x="596" y="-823.3" font-family="Times,serif" font-size="14.00">new_profile</text>
<text text-anchor="start" x="596" y="-808.3" font-family="Times,serif" font-size="14.00">update</text>
<text text-anchor="start" x="596" y="-793.3" font-family="Times,serif" font-size="14.00">update_card</text>
<polyline fill="none" stroke="black" points="588,-785.5 794,-785.5 "/>
<polyline fill="none" stroke="black" points="588,-761.5 794,-761.5 "/>
<text text-anchor="start" x="596" y="-746.3" font-family="Times,serif" font-size="14.00">_layout</text>
<text text-anchor="start" x="596" y="-731.3" font-family="Times,serif" font-size="14.00">client_account_update_params</text>
<text text-anchor="start" x="596" y="-716.3" font-family="Times,serif" font-size="14.00">merchant_account_update_params</text>
<text text-anchor="start" x="596" y="-701.3" font-family="Times,serif" font-size="14.00">user_params</text>
</g>
<!-- ApplicationController -->
<g id="node12" class="node"><title>ApplicationController</title>
<path fill="none" stroke="black" d="M852,-924.5C852,-924.5 975,-924.5 975,-924.5 981,-924.5 987,-930.5 987,-936.5 987,-936.5 987,-1050.5 987,-1050.5 987,-1056.5 981,-1062.5 975,-1062.5 975,-1062.5 852,-1062.5 852,-1062.5 846,-1062.5 840,-1056.5 840,-1050.5 840,-1050.5 840,-936.5 840,-936.5 840,-930.5 846,-924.5 852,-924.5"/>
<text text-anchor="middle" x="913.5" y="-1047.3" font-family="Times,serif" font-size="14.00">ApplicationController</text>
<polyline fill="none" stroke="black" points="840,-1039.5 987,-1039.5 "/>
<text text-anchor="start" x="848" y="-1024.3" font-family="Times,serif" font-size="14.00">after_sign_out_path_for</text>
<text text-anchor="start" x="848" y="-1009.3" font-family="Times,serif" font-size="14.00">define_header_title</text>
<polyline fill="none" stroke="black" points="840,-1001.5 987,-1001.5 "/>
<polyline fill="none" stroke="black" points="840,-977.5 987,-977.5 "/>
<text text-anchor="start" x="848" y="-962.3" font-family="Times,serif" font-size="14.00">_layout</text>
<text text-anchor="start" x="848" y="-947.3" font-family="Times,serif" font-size="14.00">browser_timezone</text>
<text text-anchor="start" x="848" y="-932.3" font-family="Times,serif" font-size="14.00">set_time_zone</text>
</g>
<!-- EquipmentsController -->
<g id="node13" class="node"><title>EquipmentsController</title>
<path fill="none" stroke="black" d="M411,-882.5C411,-882.5 536,-882.5 536,-882.5 542,-882.5 548,-888.5 548,-894.5 548,-894.5 548,-1053.5 548,-1053.5 548,-1059.5 542,-1065.5 536,-1065.5 536,-1065.5 411,-1065.5 411,-1065.5 405,-1065.5 399,-1059.5 399,-1053.5 399,-1053.5 399,-894.5 399,-894.5 399,-888.5 405,-882.5 411,-882.5"/>
<text text-anchor="middle" x="473.5" y="-1050.3" font-family="Times,serif" font-size="14.00">EquipmentsController</text>
<polyline fill="none" stroke="black" points="399,-1042.5 548,-1042.5 "/>
<text text-anchor="start" x="407" y="-1027.3" font-family="Times,serif" font-size="14.00">_callback_before_18</text>
<text text-anchor="start" x="407" y="-1012.3" font-family="Times,serif" font-size="14.00">create</text>
<text text-anchor="start" x="407" y="-997.3" font-family="Times,serif" font-size="14.00">destroy</text>
<text text-anchor="start" x="407" y="-982.3" font-family="Times,serif" font-size="14.00">get_created_equipments</text>
<text text-anchor="start" x="407" y="-967.3" font-family="Times,serif" font-size="14.00">new</text>
<text text-anchor="start" x="407" y="-952.3" font-family="Times,serif" font-size="14.00">update_name</text>
<polyline fill="none" stroke="black" points="399,-944.5 548,-944.5 "/>
<polyline fill="none" stroke="black" points="399,-920.5 548,-920.5 "/>
<text text-anchor="start" x="407" y="-905.3" font-family="Times,serif" font-size="14.00">_layout</text>
<text text-anchor="start" x="407" y="-890.3" font-family="Times,serif" font-size="14.00">equipment_params</text>
</g>
<!-- OmniauthCallbacksController -->
<g id="node14" class="node"><title>OmniauthCallbacksController</title>
<path fill="none" stroke="black" d="M852,-630.5C852,-630.5 1008,-630.5 1008,-630.5 1014,-630.5 1020,-636.5 1020,-642.5 1020,-642.5 1020,-741.5 1020,-741.5 1020,-747.5 1014,-753.5 1008,-753.5 1008,-753.5 852,-753.5 852,-753.5 846,-753.5 840,-747.5 840,-741.5 840,-741.5 840,-642.5 840,-642.5 840,-636.5 846,-630.5 852,-630.5"/>
<text text-anchor="middle" x="930" y="-738.3" font-family="Times,serif" font-size="14.00">OmniauthCallbacksController</text>
<polyline fill="none" stroke="black" points="840,-730.5 1020,-730.5 "/>
<text text-anchor="start" x="848" y="-715.3" font-family="Times,serif" font-size="14.00">facebook</text>
<text text-anchor="start" x="848" y="-700.3" font-family="Times,serif" font-size="14.00">google_oauth2</text>
<text text-anchor="start" x="848" y="-685.3" font-family="Times,serif" font-size="14.00">twitter</text>
<polyline fill="none" stroke="black" points="840,-677.5 1020,-677.5 "/>
<polyline fill="none" stroke="black" points="840,-653.5 1020,-653.5 "/>
<text text-anchor="start" x="848" y="-638.3" font-family="Times,serif" font-size="14.00">_layout</text>
</g>
<!-- CalendarsController -->
<g id="node15" class="node"><title>CalendarsController</title>
<path fill="none" stroke="black" d="M12,-105.5C12,-105.5 121,-105.5 121,-105.5 127,-105.5 133,-111.5 133,-117.5 133,-117.5 133,-336.5 133,-336.5 133,-342.5 127,-348.5 121,-348.5 121,-348.5 12,-348.5 12,-348.5 6,-348.5 0,-342.5 0,-336.5 0,-336.5 0,-117.5 0,-117.5 0,-111.5 6,-105.5 12,-105.5"/>
<text text-anchor="middle" x="66.5" y="-333.3" font-family="Times,serif" font-size="14.00">CalendarsController</text>
<polyline fill="none" stroke="black" points="0,-325.5 133,-325.5 "/>
<text text-anchor="start" x="8" y="-310.3" font-family="Times,serif" font-size="14.00">booking</text>
<text text-anchor="start" x="8" y="-295.3" font-family="Times,serif" font-size="14.00">day</text>
<text text-anchor="start" x="8" y="-280.3" font-family="Times,serif" font-size="14.00">destroy_promotion</text>
<text text-anchor="start" x="8" y="-265.3" font-family="Times,serif" font-size="14.00">get_data_day</text>
<text text-anchor="start" x="8" y="-250.3" font-family="Times,serif" font-size="14.00">get_data_month</text>
<text text-anchor="start" x="8" y="-235.3" font-family="Times,serif" font-size="14.00">get_data_week</text>
<text text-anchor="start" x="8" y="-220.3" font-family="Times,serif" font-size="14.00">get_del_pro_on_day</text>
<text text-anchor="start" x="8" y="-205.3" font-family="Times,serif" font-size="14.00">index</text>
<text text-anchor="start" x="8" y="-190.3" font-family="Times,serif" font-size="14.00">set_status_promotion</text>
<text text-anchor="start" x="8" y="-175.3" font-family="Times,serif" font-size="14.00">week</text>
<polyline fill="none" stroke="black" points="0,-167.5 133,-167.5 "/>
<polyline fill="none" stroke="black" points="0,-143.5 133,-143.5 "/>
<text text-anchor="start" x="8" y="-128.3" font-family="Times,serif" font-size="14.00">_layout</text>
<text text-anchor="start" x="8" y="-113.3" font-family="Times,serif" font-size="14.00">params_to_date</text>
</g>
<!-- FaqsController -->
<g id="node16" class="node"><title>FaqsController</title>
<path fill="none" stroke="black" d="M768,-357.5C768,-357.5 874,-357.5 874,-357.5 880,-357.5 886,-363.5 886,-369.5 886,-369.5 886,-573.5 886,-573.5 886,-579.5 880,-585.5 874,-585.5 874,-585.5 768,-585.5 768,-585.5 762,-585.5 756,-579.5 756,-573.5 756,-573.5 756,-369.5 756,-369.5 756,-363.5 762,-357.5 768,-357.5"/>
<text text-anchor="middle" x="821" y="-570.3" font-family="Times,serif" font-size="14.00">FaqsController</text>
<polyline fill="none" stroke="black" points="756,-562.5 886,-562.5 "/>
<text text-anchor="start" x="764" y="-547.3" font-family="Times,serif" font-size="14.00">_callback_before_20</text>
<text text-anchor="start" x="764" y="-532.3" font-family="Times,serif" font-size="14.00">create</text>
<text text-anchor="start" x="764" y="-517.3" font-family="Times,serif" font-size="14.00">destroy</text>
<text text-anchor="start" x="764" y="-502.3" font-family="Times,serif" font-size="14.00">edit</text>
<text text-anchor="start" x="764" y="-487.3" font-family="Times,serif" font-size="14.00">index</text>
<text text-anchor="start" x="764" y="-472.3" font-family="Times,serif" font-size="14.00">new</text>
<text text-anchor="start" x="764" y="-457.3" font-family="Times,serif" font-size="14.00">show</text>
<text text-anchor="start" x="764" y="-442.3" font-family="Times,serif" font-size="14.00">update</text>
<polyline fill="none" stroke="black" points="756,-434.5 886,-434.5 "/>
<polyline fill="none" stroke="black" points="756,-410.5 886,-410.5 "/>
<text text-anchor="start" x="764" y="-395.3" font-family="Times,serif" font-size="14.00">_layout</text>
<text text-anchor="start" x="764" y="-380.3" font-family="Times,serif" font-size="14.00">faq_params</text>
<text text-anchor="start" x="764" y="-365.3" font-family="Times,serif" font-size="14.00">load_faq</text>
</g>
<!-- UsersController -->
<g id="node17" class="node"><title>UsersController</title>
<path fill="none" stroke="black" d="M516,-357.5C516,-357.5 698,-357.5 698,-357.5 704,-357.5 710,-363.5 710,-369.5 710,-369.5 710,-648.5 710,-648.5 710,-654.5 704,-660.5 698,-660.5 698,-660.5 516,-660.5 516,-660.5 510,-660.5 504,-654.5 504,-648.5 504,-648.5 504,-369.5 504,-369.5 504,-363.5 510,-357.5 516,-357.5"/>
<text text-anchor="middle" x="607" y="-645.3" font-family="Times,serif" font-size="14.00">UsersController</text>
<polyline fill="none" stroke="black" points="504,-637.5 710,-637.5 "/>
<text text-anchor="start" x="512" y="-622.3" font-family="Times,serif" font-size="14.00">_callback_before_21</text>
<text text-anchor="start" x="512" y="-607.3" font-family="Times,serif" font-size="14.00">create</text>
<text text-anchor="start" x="512" y="-592.3" font-family="Times,serif" font-size="14.00">delete_account</text>
<text text-anchor="start" x="512" y="-577.3" font-family="Times,serif" font-size="14.00">destroy</text>
<text text-anchor="start" x="512" y="-562.3" font-family="Times,serif" font-size="14.00">edit</text>
<text text-anchor="start" x="512" y="-547.3" font-family="Times,serif" font-size="14.00">index</text>
<text text-anchor="start" x="512" y="-532.3" font-family="Times,serif" font-size="14.00">new</text>
<text text-anchor="start" x="512" y="-517.3" font-family="Times,serif" font-size="14.00">new_step2</text>
<text text-anchor="start" x="512" y="-502.3" font-family="Times,serif" font-size="14.00">send_reset_password</text>
<text text-anchor="start" x="512" y="-487.3" font-family="Times,serif" font-size="14.00">show</text>
<text text-anchor="start" x="512" y="-472.3" font-family="Times,serif" font-size="14.00">update</text>
<polyline fill="none" stroke="black" points="504,-464.5 710,-464.5 "/>
<polyline fill="none" stroke="black" points="504,-440.5 710,-440.5 "/>
<text text-anchor="start" x="512" y="-425.3" font-family="Times,serif" font-size="14.00">_layout</text>
<text text-anchor="start" x="512" y="-410.3" font-family="Times,serif" font-size="14.00">load_user</text>
<text text-anchor="start" x="512" y="-395.3" font-family="Times,serif" font-size="14.00">merchant_account_update_params</text>
<text text-anchor="start" x="512" y="-380.3" font-family="Times,serif" font-size="14.00">user_params</text>
<text text-anchor="start" x="512" y="-365.3" font-family="Times,serif" font-size="14.00">user_params_with_merchant</text>
</g>
<!-- MyActivitiesController -->
<g id="node18" class="node"><title>MyActivitiesController</title>
<path fill="none" stroke="black" d="M180,-63.5C180,-63.5 305,-63.5 305,-63.5 311,-63.5 317,-69.5 317,-75.5 317,-75.5 317,-234.5 317,-234.5 317,-240.5 311,-246.5 305,-246.5 305,-246.5 180,-246.5 180,-246.5 174,-246.5 168,-240.5 168,-234.5 168,-234.5 168,-75.5 168,-75.5 168,-69.5 174,-63.5 180,-63.5"/>
<text text-anchor="middle" x="242.5" y="-231.3" font-family="Times,serif" font-size="14.00">MyActivitiesController</text>
<polyline fill="none" stroke="black" points="168,-223.5 317,-223.5 "/>
<text text-anchor="start" x="176" y="-208.3" font-family="Times,serif" font-size="14.00">cancel_booking</text>
<text text-anchor="start" x="176" y="-193.3" font-family="Times,serif" font-size="14.00">contact</text>
<text text-anchor="start" x="176" y="-178.3" font-family="Times,serif" font-size="14.00">destroy</text>
<text text-anchor="start" x="176" y="-163.3" font-family="Times,serif" font-size="14.00">index</text>
<text text-anchor="start" x="176" y="-148.3" font-family="Times,serif" font-size="14.00">params_history</text>
<text text-anchor="start" x="176" y="-133.3" font-family="Times,serif" font-size="14.00">send_contact</text>
<text text-anchor="start" x="176" y="-118.3" font-family="Times,serif" font-size="14.00">update_create_v_money</text>
<polyline fill="none" stroke="black" points="168,-110.5 317,-110.5 "/>
<polyline fill="none" stroke="black" points="168,-86.5 317,-86.5 "/>
<text text-anchor="start" x="176" y="-71.3" font-family="Times,serif" font-size="14.00">_layout</text>
</g>
</g>
</svg>
