<?xml version="1.0" encoding="UTF-8" standalone="no"?>
<!DOCTYPE svg PUBLIC "-//W3C//DTD SVG 1.1//EN"
 "http://www.w3.org/Graphics/SVG/1.1/DTD/svg11.dtd">
<!-- Generated by graphviz version 2.36.0 (20140111.2315)
 -->
<!-- Title: models_diagram Pages: 1 -->
<svg width="1280pt" height="446pt"
 viewBox="0.00 0.00 1280.00 446.00" xmlns="http://www.w3.org/2000/svg" xmlns:xlink="http://www.w3.org/1999/xlink">
<g id="graph0" class="graph" transform="scale(1 1) rotate(0) translate(4 442)">
<title>models_diagram</title>
<polygon fill="none" stroke="none" points="-4,4 -4,-442 1276,-442 1276,4 -4,4"/>
<!-- _diagram_info -->
<g id="node1" class="node"><title>_diagram_info</title>
<text text-anchor="start" x="615" y="-423.6" font-family="Times,serif" font-size="13.00">Models diagram</text>
<text text-anchor="start" x="615" y="-409.6" font-family="Times,serif" font-size="13.00">Date: Oct 01 2015 &#45; 11:27</text>
<text text-anchor="start" x="615" y="-395.6" font-family="Times,serif" font-size="13.00">Migration version: 20150724081808</text>
<text text-anchor="start" x="615" y="-381.6" font-family="Times,serif" font-size="13.00">Generated by RailRoady 1.3.1</text>
<text text-anchor="start" x="615" y="-367.6" font-family="Times,serif" font-size="13.00">http://railroady.prestonlee.com</text>
</g>
<!-- WorkingSchedule -->
<g id="node2" class="node"><title>WorkingSchedule</title>
<ellipse fill="none" stroke="black" cx="869" cy="-162" rx="74.6146" ry="18"/>
<text text-anchor="middle" x="869" y="-158.3" font-family="Times,serif" font-size="14.00">WorkingSchedule</text>
</g>
<!-- EquipmentSchedule -->
<g id="node14" class="node"><title>EquipmentSchedule</title>
<ellipse fill="none" stroke="black" cx="712" cy="-90" rx="81.3398" ry="18"/>
<text text-anchor="middle" x="712" y="-86.3" font-family="Times,serif" font-size="14.00">EquipmentSchedule</text>
</g>
<!-- WorkingSchedule&#45;&gt;EquipmentSchedule -->
<g id="edge3" class="edge"><title>WorkingSchedule&#45;&gt;EquipmentSchedule</title>
<path fill="none" stroke="#9d21cb" d="M827.335,-142.423C805.273,-132.587 778.191,-120.512 755.815,-110.536"/>
<ellipse fill="none" stroke="#9d21cb" cx="831.28" cy="-144.182" rx="4.00002" ry="4.00002"/>
<polygon fill="#9d21cb" stroke="#9d21cb" points="755.676,-110.473 748.375,-102.291 751.109,-108.437 746.542,-106.401 746.542,-106.401 746.542,-106.401 751.109,-108.437 744.71,-110.511 755.676,-110.473 755.676,-110.473"/>
</g>
<!-- EmployeeSchedule -->
<g id="node16" class="node"><title>EmployeeSchedule</title>
<ellipse fill="none" stroke="black" cx="1023" cy="-90" rx="78.9404" ry="18"/>
<text text-anchor="middle" x="1023" y="-86.3" font-family="Times,serif" font-size="14.00">EmployeeSchedule</text>
</g>
<!-- WorkingSchedule&#45;&gt;EmployeeSchedule -->
<g id="edge2" class="edge"><title>WorkingSchedule&#45;&gt;EmployeeSchedule</title>
<path fill="none" stroke="#6da8fb" d="M909.869,-142.423C931.413,-132.631 957.837,-120.62 979.728,-110.669"/>
<ellipse fill="none" stroke="#6da8fb" cx="906.057" cy="-144.156" rx="4.00002" ry="4.00002"/>
<polygon fill="#6da8fb" stroke="#6da8fb" points="980.014,-110.539 990.98,-110.498 984.566,-108.47 989.118,-106.401 989.118,-106.401 989.118,-106.401 984.566,-108.47 987.256,-102.304 980.014,-110.539 980.014,-110.539"/>
</g>
<!-- WorkingDay -->
<g id="node20" class="node"><title>WorkingDay</title>
<ellipse fill="none" stroke="black" cx="869" cy="-90" rx="57.2927" ry="18"/>
<text text-anchor="middle" x="869" y="-86.3" font-family="Times,serif" font-size="14.00">WorkingDay</text>
</g>
<!-- WorkingSchedule&#45;&gt;WorkingDay -->
<g id="edge1" class="edge"><title>WorkingSchedule&#45;&gt;WorkingDay</title>
<path fill="none" stroke="#386252" d="M869,-135.64C869,-130.063 869,-124.132 869,-118.476"/>
<ellipse fill="none" stroke="#386252" cx="869" cy="-139.697" rx="4" ry="4"/>
<polygon fill="#386252" stroke="#386252" points="869,-118.104 873.5,-108.104 869,-113.104 869,-108.104 869,-108.104 869,-108.104 869,-113.104 864.5,-108.104 869,-118.104 869,-118.104"/>
</g>
<!-- Identity -->
<g id="node3" class="node"><title>Identity</title>
<ellipse fill="none" stroke="black" cx="649" cy="-234" rx="38.0212" ry="18"/>
<text text-anchor="middle" x="649" y="-230.3" font-family="Times,serif" font-size="14.00">Identity</text>
</g>
<!-- BillingDetail -->
<g id="node4" class="node"><title>BillingDetail</title>
<ellipse fill="none" stroke="black" cx="385" cy="-234" rx="56.3173" ry="18"/>
<text text-anchor="middle" x="385" y="-230.3" font-family="Times,serif" font-size="14.00">BillingDetail</text>
</g>
<!-- Promotion -->
<g id="node5" class="node"><title>Promotion</title>
<ellipse fill="none" stroke="black" cx="186" cy="-234" rx="48.1437" ry="18"/>
<text text-anchor="middle" x="186" y="-230.3" font-family="Times,serif" font-size="14.00">Promotion</text>
</g>
<!-- Promotion&#45;&gt;WorkingSchedule -->
<g id="edge4" class="edge"><title>Promotion&#45;&gt;WorkingSchedule</title>
<path fill="none" stroke="#89dda3" d="M238.089,-223.357C253.48,-220.721 270.386,-218.034 286,-216 464.602,-192.736 675.312,-176.283 788.086,-168.359"/>
<polygon fill="#89dda3" stroke="#89dda3" points="238.075,-223.359 227.451,-220.64 233.149,-224.216 228.223,-225.074 228.223,-225.074 228.223,-225.074 233.149,-224.216 228.994,-229.507 238.075,-223.359 238.075,-223.359"/>
<polygon fill="#89dda3" stroke="#89dda3" points="788.382,-168.339 798.671,-172.131 793.37,-167.99 798.358,-167.642 798.358,-167.642 798.358,-167.642 793.37,-167.99 798.045,-163.153 788.382,-168.339 788.382,-168.339"/>
</g>
<!-- HistoryVMoney -->
<g id="node8" class="node"><title>HistoryVMoney</title>
<ellipse fill="none" stroke="black" cx="68" cy="-162" rx="68.3417" ry="18"/>
<text text-anchor="middle" x="68" y="-158.3" font-family="Times,serif" font-size="14.00">HistoryVMoney</text>
</g>
<!-- Promotion&#45;&gt;HistoryVMoney -->
<g id="edge8" class="edge"><title>Promotion&#45;&gt;HistoryVMoney</title>
<path fill="none" stroke="#665b9d" d="M154.369,-214.236C138.574,-204.866 119.417,-193.502 103.162,-183.859"/>
<ellipse fill="none" stroke="#665b9d" cx="158.11" cy="-216.455" rx="4.00002" ry="4.00002"/>
<polygon fill="#665b9d" stroke="#665b9d" points="103.071,-183.805 96.766,-174.832 98.7703,-181.254 94.47,-178.703 94.47,-178.703 94.47,-178.703 98.7703,-181.254 92.1741,-182.573 103.071,-183.805 103.071,-183.805"/>
</g>
<!-- Image -->
<g id="node9" class="node"><title>Image</title>
<ellipse fill="none" stroke="black" cx="188" cy="-162" rx="33.2209" ry="18"/>
<text text-anchor="middle" x="188" y="-158.3" font-family="Times,serif" font-size="14.00">Image</text>
</g>
<!-- Promotion&#45;&gt;Image -->
<g id="edge5" class="edge"><title>Promotion&#45;&gt;Image</title>
<path fill="none" stroke="#d421a4" d="M186.725,-207.64C186.884,-202.063 187.053,-196.132 187.215,-190.476"/>
<ellipse fill="none" stroke="#d421a4" cx="186.609" cy="-211.698" rx="4" ry="4"/>
<polygon fill="#d421a4" stroke="#d421a4" points="187.226,-190.1 192.009,-180.233 187.368,-185.102 187.511,-180.104 187.511,-180.104 187.511,-180.104 187.368,-185.102 183.013,-179.976 187.226,-190.1 187.226,-190.1"/>
</g>
<!-- Category -->
<g id="node11" class="node"><title>Category</title>
<ellipse fill="none" stroke="black" cx="282" cy="-162" rx="42.3456" ry="18"/>
<text text-anchor="middle" x="282" y="-158.3" font-family="Times,serif" font-size="14.00">Category</text>
</g>
<!-- Promotion&#45;&gt;Category -->
<g id="edge7" class="edge"><title>Promotion&#45;&gt;Category</title>
<path fill="none" stroke="#87468d" d="M215.668,-211.367C227.602,-202.665 241.317,-192.665 253.166,-184.025"/>
<polygon fill="#87468d" stroke="#87468d" points="215.386,-211.573 204.654,-213.829 211.346,-214.519 207.306,-217.465 207.306,-217.465 207.306,-217.465 211.346,-214.519 209.957,-221.101 215.386,-211.573 215.386,-211.573"/>
<polygon fill="#87468d" stroke="#87468d" points="253.333,-183.903 264.064,-181.647 257.373,-180.957 261.413,-178.011 261.413,-178.011 261.413,-178.011 257.373,-180.957 258.762,-174.375 253.333,-183.903 253.333,-183.903"/>
</g>
<!-- Booking -->
<g id="node13" class="node"><title>Booking</title>
<ellipse fill="none" stroke="black" cx="384" cy="-162" rx="40.4202" ry="18"/>
<text text-anchor="middle" x="384" y="-158.3" font-family="Times,serif" font-size="14.00">Booking</text>
</g>
<!-- Promotion&#45;&gt;Booking -->
<g id="edge6" class="edge"><title>Promotion&#45;&gt;Booking</title>
<path fill="none" stroke="#9e38c5" d="M227.324,-218.39C261.477,-206.316 309.691,-189.271 343.59,-177.286"/>
<ellipse fill="none" stroke="#9e38c5" cx="223.359" cy="-219.792" rx="4.00001" ry="4.00001"/>
<polygon fill="#9e38c5" stroke="#9e38c5" points="343.755,-177.228 354.683,-178.138 348.469,-175.561 353.183,-173.895 353.183,-173.895 353.183,-173.895 348.469,-175.561 351.683,-169.652 343.755,-177.228 343.755,-177.228"/>
</g>
<!-- MerchantDetail -->
<g id="node6" class="node"><title>MerchantDetail</title>
<ellipse fill="none" stroke="black" cx="526" cy="-234" rx="65.9423" ry="18"/>
<text text-anchor="middle" x="526" y="-230.3" font-family="Times,serif" font-size="14.00">MerchantDetail</text>
</g>
<!-- Equipment -->
<g id="node7" class="node"><title>Equipment</title>
<ellipse fill="none" stroke="black" cx="869" cy="-234" rx="50.0684" ry="18"/>
<text text-anchor="middle" x="869" y="-230.3" font-family="Times,serif" font-size="14.00">Equipment</text>
</g>
<!-- Equipment&#45;&gt;WorkingSchedule -->
<g id="edge10" class="edge"><title>Equipment&#45;&gt;WorkingSchedule</title>
<path fill="none" stroke="#d2728e" d="M869,-205.665C869,-200.687 869,-195.491 869,-190.507"/>
<polygon fill="#d2728e" stroke="#d2728e" points="869,-205.697 864.5,-215.697 869,-210.697 869,-215.697 869,-215.697 869,-215.697 869,-210.697 873.5,-215.697 869,-205.697 869,-205.697"/>
<polygon fill="#d2728e" stroke="#d2728e" points="869,-190.104 873.5,-180.104 869,-185.104 869,-180.104 869,-180.104 869,-180.104 869,-185.104 864.5,-180.104 869,-190.104 869,-190.104"/>
</g>
<!-- Equipment&#45;&gt;EquipmentSchedule -->
<g id="edge9" class="edge"><title>Equipment&#45;&gt;EquipmentSchedule</title>
<path fill="none" stroke="#953918" d="M834.647,-214.712C818.712,-205.405 800.02,-193.263 785,-180 763.436,-160.958 743.041,-135.19 729.319,-116.281"/>
<ellipse fill="none" stroke="#953918" cx="838.281" cy="-216.794" rx="4.00002" ry="4.00002"/>
<polygon fill="#953918" stroke="#953918" points="729.309,-116.266 727.167,-105.512 726.406,-112.195 723.503,-108.124 723.503,-108.124 723.503,-108.124 726.406,-112.195 719.839,-110.736 729.309,-116.266 729.309,-116.266"/>
</g>
<!-- Segment -->
<g id="node10" class="node"><title>Segment</title>
<ellipse fill="none" stroke="black" cx="869" cy="-18" rx="42.3701" ry="18"/>
<text text-anchor="middle" x="869" y="-14.3" font-family="Times,serif" font-size="14.00">Segment</text>
</g>
<!-- User -->
<g id="node12" class="node"><title>User</title>
<ellipse fill="none" stroke="black" cx="281" cy="-306" rx="26.949" ry="18"/>
<text text-anchor="middle" x="281" y="-302.3" font-family="Times,serif" font-size="14.00">User</text>
</g>
<!-- User&#45;&gt;WorkingSchedule -->
<g id="edge14" class="edge"><title>User&#45;&gt;WorkingSchedule</title>
<path fill="none" stroke="#b36939" d="M284.663,-279.634C289.074,-258.989 298.622,-230.91 319,-216 355.833,-189.05 641.849,-172.88 786.213,-166.355"/>
<ellipse fill="none" stroke="#b36939" cx="283.871" cy="-283.763" rx="4.00001" ry="4.00001"/>
<polygon fill="#b36939" stroke="#b36939" points="786.367,-166.348 796.557,-170.397 791.362,-166.125 796.357,-165.902 796.357,-165.902 796.357,-165.902 791.362,-166.125 796.156,-161.406 786.367,-166.348 786.367,-166.348"/>
</g>
<!-- User&#45;&gt;Identity -->
<g id="edge13" class="edge"><title>User&#45;&gt;Identity</title>
<path fill="none" stroke="#6f21dd" d="M316.164,-301.232C375.532,-294.416 499.131,-278.257 601,-252 604.167,-251.184 607.422,-250.248 610.672,-249.245"/>
<ellipse fill="none" stroke="#6f21dd" cx="311.856" cy="-301.72" rx="4.00001" ry="4.00001"/>
<polygon fill="#6f21dd" stroke="#6f21dd" points="610.816,-249.198 621.72,-250.36 615.568,-247.641 620.319,-246.084 620.319,-246.084 620.319,-246.084 615.568,-247.641 618.918,-241.808 610.816,-249.198 610.816,-249.198"/>
</g>
<!-- User&#45;&gt;BillingDetail -->
<g id="edge12" class="edge"><title>User&#45;&gt;BillingDetail</title>
<path fill="none" stroke="#0b399b" d="M306.497,-287.838C320.634,-278.323 338.338,-266.407 353.353,-256.301"/>
<ellipse fill="none" stroke="#0b399b" cx="302.911" cy="-290.252" rx="4.00002" ry="4.00002"/>
<polygon fill="#0b399b" stroke="#0b399b" points="353.54,-256.175 364.349,-254.324 357.688,-253.383 361.836,-250.591 361.836,-250.591 361.836,-250.591 357.688,-253.383 359.324,-246.858 353.54,-256.175 353.54,-256.175"/>
</g>
<!-- User&#45;&gt;Promotion -->
<g id="edge15" class="edge"><title>User&#45;&gt;Promotion</title>
<path fill="none" stroke="#fb5751" d="M256.842,-287.199C244.212,-277.893 228.653,-266.428 215.336,-256.616"/>
<ellipse fill="none" stroke="#fb5751" cx="260.355" cy="-289.788" rx="4.00002" ry="4.00002"/>
<polygon fill="#fb5751" stroke="#fb5751" points="215.013,-256.378 209.631,-246.823 210.987,-253.412 206.962,-250.446 206.962,-250.446 206.962,-250.446 210.987,-253.412 204.293,-254.069 215.013,-256.378 215.013,-256.378"/>
</g>
<!-- User&#45;&gt;MerchantDetail -->
<g id="edge11" class="edge"><title>User&#45;&gt;MerchantDetail</title>
<path fill="none" stroke="#7d0636" d="M313.314,-295.767C354.286,-284.061 425.434,-263.733 474.065,-249.838"/>
<ellipse fill="none" stroke="#7d0636" cx="309.233" cy="-296.933" rx="4.00001" ry="4.00001"/>
<ellipse fill="#7d0636" stroke="#7d0636" cx="478.123" cy="-248.679" rx="4.00001" ry="4.00001"/>
</g>
<!-- User&#45;&gt;HistoryVMoney -->
<g id="edge18" class="edge"><title>User&#45;&gt;HistoryVMoney</title>
<path fill="none" stroke="#f79928" d="M246.255,-301.006C210.868,-295.378 156.072,-282.183 119,-252 99.034,-235.745 85.3536,-209.464 77.2272,-189.666"/>
<ellipse fill="none" stroke="#f79928" cx="250.417" cy="-301.627" rx="4.00001" ry="4.00001"/>
<polygon fill="#f79928" stroke="#f79928" points="77.1975,-189.59 77.7758,-178.639 75.389,-184.928 73.5804,-180.267 73.5804,-180.267 73.5804,-180.267 75.389,-184.928 69.3851,-181.894 77.1975,-189.59 77.1975,-189.59"/>
</g>
<!-- User&#45;&gt;Category -->
<g id="edge17" class="edge"><title>User&#45;&gt;Category</title>
<path fill="none" stroke="#aea548" d="M245.491,-303.769C209.439,-300.396 155.296,-289.018 129,-252 119.734,-238.956 119.721,-229.034 129,-216 130.7,-213.611 195.199,-191.815 239.901,-176.929"/>
<ellipse fill="none" stroke="#aea548" cx="249.801" cy="-304.115" rx="4" ry="4"/>
<polygon fill="#aea548" stroke="#aea548" points="240.178,-176.837 251.088,-177.952 244.923,-175.259 249.668,-173.682 249.668,-173.682 249.668,-173.682 244.923,-175.259 248.248,-169.411 240.178,-176.837 240.178,-176.837"/>
</g>
<!-- User&#45;&gt;Booking -->
<g id="edge16" class="edge"><title>User&#45;&gt;Booking</title>
<path fill="none" stroke="#1391c1" d="M276.244,-280.184C273.968,-261.152 273.935,-235.007 286,-216 293.184,-204.683 321.315,-190.084 345.606,-179.075"/>
<ellipse fill="none" stroke="#1391c1" cx="276.809" cy="-284.16" rx="4.00001" ry="4.00001"/>
<polygon fill="#1391c1" stroke="#1391c1" points="345.878,-178.954 356.844,-179.01 350.448,-176.925 355.018,-174.897 355.018,-174.897 355.018,-174.897 350.448,-176.925 353.192,-170.784 345.878,-178.954 345.878,-178.954"/>
</g>
<!-- MerchantAccountType -->
<g id="node15" class="node"><title>MerchantAccountType</title>
<ellipse fill="none" stroke="black" cx="1180" cy="-234" rx="92.413" ry="18"/>
<text text-anchor="middle" x="1180" y="-230.3" font-family="Times,serif" font-size="14.00">MerchantAccountType</text>
</g>
<!-- AccountType -->
<g id="node17" class="node"><title>AccountType</title>
<ellipse fill="none" stroke="black" cx="897" cy="-399" rx="58.2422" ry="18"/>
<text text-anchor="middle" x="897" y="-395.3" font-family="Times,serif" font-size="14.00">AccountType</text>
</g>
<!-- AccountType&#45;&gt;MerchantAccountType -->
<g id="edge19" class="edge"><title>AccountType&#45;&gt;MerchantAccountType</title>
<path fill="none" stroke="#1e8c05" d="M930.611,-378.641C984.001,-347.89 1087.79,-288.108 1143.15,-256.226"/>
<ellipse fill="none" stroke="#1e8c05" cx="926.836" cy="-380.815" rx="4.00002" ry="4.00002"/>
<polygon fill="#1e8c05" stroke="#1e8c05" points="1143.26,-256.161 1154.17,-255.07 1147.59,-253.666 1151.93,-251.17 1151.93,-251.17 1151.93,-251.17 1147.59,-253.666 1149.68,-247.271 1143.26,-256.161 1143.26,-256.161"/>
</g>
<!-- Merchant -->
<g id="node19" class="node"><title>Merchant</title>
<ellipse fill="none" stroke="black" cx="772" cy="-306" rx="44.271" ry="18"/>
<text text-anchor="middle" x="772" y="-302.3" font-family="Times,serif" font-size="14.00">Merchant</text>
</g>
<!-- AccountType&#45;&gt;Merchant -->
<g id="edge20" class="edge"><title>AccountType&#45;&gt;Merchant</title>
<path fill="none" stroke="#23d956" d="M866.862,-376.06C846.867,-361.503 820.769,-342.504 801.009,-328.119"/>
<polygon fill="#23d956" stroke="#23d956" points="867.142,-376.263 872.578,-385.787 871.184,-379.206 875.227,-382.149 875.227,-382.149 875.227,-382.149 871.184,-379.206 877.875,-378.511 867.142,-376.263 867.142,-376.263"/>
<polygon fill="#23d956" stroke="#23d956" points="800.778,-327.951 795.342,-318.427 796.736,-325.008 792.694,-322.065 792.694,-322.065 792.694,-322.065 796.736,-325.008 790.045,-325.703 800.778,-327.951 800.778,-327.951"/>
</g>
<!-- Employee -->
<g id="node18" class="node"><title>Employee</title>
<ellipse fill="none" stroke="black" cx="1022" cy="-234" rx="46.1964" ry="18"/>
<text text-anchor="middle" x="1022" y="-230.3" font-family="Times,serif" font-size="14.00">Employee</text>
</g>
<!-- Employee&#45;&gt;WorkingSchedule -->
<g id="edge22" class="edge"><title>Employee&#45;&gt;WorkingSchedule</title>
<path fill="none" stroke="#dbfddc" d="M983.992,-215.611C961.908,-205.507 934.037,-192.755 911.264,-182.337"/>
<polygon fill="#dbfddc" stroke="#dbfddc" points="984.128,-215.673 991.35,-223.926 988.675,-217.753 993.222,-219.834 993.222,-219.834 993.222,-219.834 988.675,-217.753 995.094,-215.741 984.128,-215.673 984.128,-215.673"/>
<polygon fill="#dbfddc" stroke="#dbfddc" points="911.264,-182.337 904.043,-174.084 906.717,-180.256 902.171,-178.176 902.171,-178.176 902.171,-178.176 906.717,-180.256 900.299,-182.268 911.264,-182.337 911.264,-182.337"/>
</g>
<!-- Employee&#45;&gt;EmployeeSchedule -->
<g id="edge21" class="edge"><title>Employee&#45;&gt;EmployeeSchedule</title>
<path fill="none" stroke="#98da42" d="M1022.18,-207.558C1022.36,-182.444 1022.63,-144.164 1022.81,-118.393"/>
<ellipse fill="none" stroke="#98da42" cx="1022.15" cy="-211.872" rx="4" ry="4"/>
<polygon fill="#98da42" stroke="#98da42" points="1022.81,-118.189 1027.38,-108.221 1022.84,-113.189 1022.88,-108.189 1022.88,-108.189 1022.88,-108.189 1022.84,-113.189 1018.38,-108.158 1022.81,-118.189 1022.81,-118.189"/>
</g>
<!-- Merchant&#45;&gt;WorkingSchedule -->
<g id="edge26" class="edge"><title>Merchant&#45;&gt;WorkingSchedule</title>
<path fill="none" stroke="#3ec3c1" d="M824.504,-302.294C860.047,-297.399 904.636,-284.613 928,-252 937.318,-238.993 934.516,-230.613 928,-216 922.646,-203.993 913.079,-193.571 903.186,-185.22"/>
<ellipse fill="none" stroke="#3ec3c1" cx="820.115" cy="-302.836" rx="4.00001" ry="4.00001"/>
<polygon fill="#3ec3c1" stroke="#3ec3c1" points="903.114,-185.163 898.041,-175.442 899.185,-182.07 895.257,-178.977 895.257,-178.977 895.257,-178.977 899.185,-182.07 892.473,-182.513 903.114,-185.163 903.114,-185.163"/>
</g>
<!-- Merchant&#45;&gt;Identity -->
<g id="edge25" class="edge"><title>Merchant&#45;&gt;Identity</title>
<path fill="none" stroke="#768dba" d="M740.178,-286.89C722.099,-276.601 699.519,-263.751 681.353,-253.412"/>
<ellipse fill="none" stroke="#768dba" cx="743.928" cy="-289.024" rx="4.00002" ry="4.00002"/>
<polygon fill="#768dba" stroke="#768dba" points="680.994,-253.208 674.528,-244.351 676.648,-250.735 672.303,-248.262 672.303,-248.262 672.303,-248.262 676.648,-250.735 670.077,-252.173 680.994,-253.208 680.994,-253.208"/>
</g>
<!-- Merchant&#45;&gt;BillingDetail -->
<g id="edge24" class="edge"><title>Merchant&#45;&gt;BillingDetail</title>
<path fill="none" stroke="#611afa" d="M722.26,-298.181C658.947,-289.182 546.34,-272.108 451,-252 446.257,-251 441.341,-249.884 436.43,-248.716"/>
<ellipse fill="none" stroke="#611afa" cx="726.523" cy="-298.784" rx="4.00001" ry="4.00001"/>
<polygon fill="#611afa" stroke="#611afa" points="436.126,-248.641 427.483,-241.893 431.269,-247.452 426.413,-246.264 426.413,-246.264 426.413,-246.264 431.269,-247.452 425.343,-250.635 436.126,-248.641 436.126,-248.641"/>
</g>
<!-- Merchant&#45;&gt;Promotion -->
<g id="edge27" class="edge"><title>Merchant&#45;&gt;Promotion</title>
<path fill="none" stroke="#c60d9d" d="M721.777,-299.301C638.183,-289.776 465.231,-269.899 319,-252 293.223,-248.845 264.654,-245.211 240.622,-242.115"/>
<ellipse fill="none" stroke="#c60d9d" cx="725.852" cy="-299.765" rx="4.00001" ry="4.00001"/>
<polygon fill="#c60d9d" stroke="#c60d9d" points="240.54,-242.104 231.198,-236.361 235.581,-241.464 230.622,-240.824 230.622,-240.824 230.622,-240.824 235.581,-241.464 230.046,-245.287 240.54,-242.104 240.54,-242.104"/>
</g>
<!-- Merchant&#45;&gt;MerchantDetail -->
<g id="edge23" class="edge"><title>Merchant&#45;&gt;MerchantDetail</title>
<path fill="none" stroke="#cd6359" d="M728.992,-292.762C686.878,-280.778 622.669,-262.508 577.775,-249.733"/>
<ellipse fill="none" stroke="#cd6359" cx="732.907" cy="-293.876" rx="4.00001" ry="4.00001"/>
<ellipse fill="#cd6359" stroke="#cd6359" cx="573.754" cy="-248.589" rx="4.00001" ry="4.00001"/>
</g>
<!-- Merchant&#45;&gt;Equipment -->
<g id="edge33" class="edge"><title>Merchant&#45;&gt;Equipment</title>
<path fill="none" stroke="#5010da" d="M799.778,-284.954C812.148,-276.027 826.733,-265.502 839.318,-256.42"/>
<ellipse fill="none" stroke="#5010da" cx="796.291" cy="-287.47" rx="4.00002" ry="4.00002"/>
<polygon fill="#5010da" stroke="#5010da" points="839.55,-256.253 850.292,-254.05 843.604,-253.327 847.659,-250.401 847.659,-250.401 847.659,-250.401 843.604,-253.327 845.025,-246.752 839.55,-256.253 839.55,-256.253"/>
</g>
<!-- Merchant&#45;&gt;HistoryVMoney -->
<g id="edge30" class="edge"><title>Merchant&#45;&gt;HistoryVMoney</title>
<path fill="none" stroke="#5b9499" d="M753.543,-282.519C732.315,-256.796 699.872,-217.941 696,-216 586.504,-161.109 267.286,-197.089 146,-180 139.696,-179.112 133.142,-177.995 126.632,-176.76"/>
<ellipse fill="none" stroke="#5b9499" cx="756.13" cy="-285.659" rx="4.00002" ry="4.00002"/>
<polygon fill="#5b9499" stroke="#5b9499" points="126.287,-176.691 117.358,-170.325 121.383,-175.715 116.48,-174.738 116.48,-174.738 116.48,-174.738 121.383,-175.715 115.601,-179.152 126.287,-176.691 126.287,-176.691"/>
</g>
<!-- Merchant&#45;&gt;Category -->
<g id="edge29" class="edge"><title>Merchant&#45;&gt;Category</title>
<path fill="none" stroke="#3fbae7" d="M767.075,-280.159C761.558,-259.385 750.42,-230.837 729,-216 656.544,-165.81 420.324,-197.807 334,-180 330.343,-179.246 326.583,-178.322 322.838,-177.299"/>
<ellipse fill="none" stroke="#3fbae7" cx="768.036" cy="-284.085" rx="4.00001" ry="4.00001"/>
<polygon fill="#3fbae7" stroke="#3fbae7" points="322.63,-177.238 314.314,-170.091 317.835,-175.822 313.039,-174.407 313.039,-174.407 313.039,-174.407 317.835,-175.822 311.765,-178.723 322.63,-177.238 322.63,-177.238"/>
</g>
<!-- Merchant&#45;&gt;Booking -->
<g id="edge28" class="edge"><title>Merchant&#45;&gt;Booking</title>
<path fill="none" stroke="#534f7e" d="M778.378,-279.786C781.77,-259.91 782.51,-232.827 767,-216 723.203,-168.485 528.65,-162.462 434.874,-162.396"/>
<ellipse fill="none" stroke="#534f7e" cx="777.573" cy="-283.888" rx="4.00001" ry="4.00001"/>
<polygon fill="#534f7e" stroke="#534f7e" points="434.766,-162.396 424.759,-157.912 429.766,-162.404 424.766,-162.412 424.766,-162.412 424.766,-162.412 429.766,-162.404 424.773,-166.912 434.766,-162.396 434.766,-162.396"/>
</g>
<!-- Merchant&#45;&gt;MerchantAccountType -->
<g id="edge31" class="edge"><title>Merchant&#45;&gt;MerchantAccountType</title>
<path fill="none" stroke="#7cf3d9" d="M820.34,-296.706C890.147,-284.73 1019.9,-262.469 1102.98,-248.214"/>
<ellipse fill="none" stroke="#7cf3d9" cx="816.18" cy="-297.42" rx="4.00001" ry="4.00001"/>
<polygon fill="#7cf3d9" stroke="#7cf3d9" points="1103.02,-248.207 1113.64,-250.951 1107.95,-247.362 1112.88,-246.516 1112.88,-246.516 1112.88,-246.516 1107.95,-247.362 1112.12,-242.081 1103.02,-248.207 1103.02,-248.207"/>
</g>
<!-- Merchant&#45;&gt;Employee -->
<g id="edge32" class="edge"><title>Merchant&#45;&gt;Employee</title>
<path fill="none" stroke="#40e335" d="M815.305,-292.875C860.093,-280.334 929.778,-260.822 975.655,-247.977"/>
<ellipse fill="none" stroke="#40e335" cx="811.405" cy="-293.966" rx="4.00001" ry="4.00001"/>
<polygon fill="#40e335" stroke="#40e335" points="975.72,-247.958 986.563,-249.595 980.535,-246.61 985.35,-245.262 985.35,-245.262 985.35,-245.262 980.535,-246.61 984.136,-240.929 975.72,-247.958 975.72,-247.958"/>
</g>
<!-- WorkingDay&#45;&gt;Segment -->
<g id="edge34" class="edge"><title>WorkingDay&#45;&gt;Segment</title>
<path fill="none" stroke="#ba4784" d="M869,-63.6398C869,-58.0629 869,-52.1319 869,-46.4761"/>
<ellipse fill="none" stroke="#ba4784" cx="869" cy="-67.6966" rx="4" ry="4"/>
<polygon fill="#ba4784" stroke="#ba4784" points="869,-46.1043 873.5,-36.1043 869,-41.1043 869,-36.1043 869,-36.1043 869,-36.1043 869,-41.1043 864.5,-36.1044 869,-46.1043 869,-46.1043"/>
</g>
<!-- Ability -->
<g id="node21" class="node"><title>Ability</title>
<polygon fill="none" stroke="black" points="1028.25,-417 973.75,-417 973.75,-381 1028.25,-381 1028.25,-417"/>
<text text-anchor="middle" x="1001" y="-395.3" font-family="Times,serif" font-size="14.00">Ability</text>
</g>
<!-- Faq -->
<g id="node22" class="node"><title>Faq</title>
<ellipse fill="none" stroke="black" cx="1074" cy="-399" rx="27" ry="18"/>
<text text-anchor="middle" x="1074" y="-395.3" font-family="Times,serif" font-size="14.00">Faq</text>
</g>
</g>
</svg>
